<svg width="14" height="13" viewBox="0 0 14 13" fill="none" xmlns="http://www.w3.org/2000/svg">
<path fill-rule="evenodd" clip-rule="evenodd" d="M9.56654 0.167099C9.9872 0.167099 10.4072 0.226432 10.8065 0.360432C13.2672 1.16043 14.1539 3.86043 13.4132 6.22043C12.9932 7.42643 12.3065 8.5271 11.4072 9.42643C10.1199 10.6731 8.7072 11.7798 7.18654 12.7331L7.01987 12.8338L6.84654 12.7264C5.32054 11.7798 3.89987 10.6731 2.60054 9.41976C1.7072 8.52043 1.01987 7.42643 0.593202 6.22043C-0.160131 3.86043 0.726535 1.16043 3.21387 0.346432C3.4072 0.279765 3.60654 0.233099 3.80654 0.207099H3.88654C4.07387 0.179765 4.25987 0.167099 4.44654 0.167099H4.51987C4.93987 0.179765 5.34654 0.253099 5.74054 0.387099H5.77987C5.80654 0.399765 5.82654 0.413765 5.83987 0.426432C5.9872 0.473765 6.12654 0.527099 6.25987 0.600432L6.5132 0.713765C6.57442 0.746413 6.64313 0.796299 6.70251 0.839412C6.74013 0.866728 6.77401 0.891326 6.79987 0.907098C6.81075 0.913518 6.82181 0.919972 6.83295 0.92648C6.89012 0.959847 6.94966 0.994606 6.99987 1.0331C7.74054 0.467099 8.63987 0.160432 9.56654 0.167099ZM11.3399 4.9671C11.6132 4.95977 11.8465 4.74043 11.8665 4.45977V4.38043C11.8865 3.44643 11.3205 2.60043 10.4599 2.27376C10.1865 2.17976 9.88654 2.3271 9.78654 2.6071C9.6932 2.8871 9.83987 3.19377 10.1199 3.2931C10.5472 3.4531 10.8332 3.87377 10.8332 4.33977V4.36043C10.8205 4.5131 10.8665 4.66043 10.9599 4.77377C11.0532 4.8871 11.1932 4.9531 11.3399 4.9671Z" fill="#9B9B9B"/>
</svg>
