<svg width="83" height="133" viewBox="0 0 83 133" fill="none" xmlns="http://www.w3.org/2000/svg">
<g opacity="0.5">
<path d="M15.6544 36.6146L1.68882 36.9836L1.65527 35.6195L15.6208 35.2505L15.6544 36.6146Z" fill="url(#paint0_linear_44_1501)"/>
<path d="M5.2445 37.5874L0.54831 37.7104C0.279956 37.7216 0.0563283 37.5092 0.0451469 37.2408L0.000421965 35.5077C-0.0107594 35.2393 0.201685 35.0157 0.470039 35.0045L5.16623 34.8815C5.43458 34.8703 5.65821 35.0828 5.66939 35.3511L5.71412 37.0843C5.71412 37.3526 5.51285 37.5762 5.2445 37.5874Z" fill="url(#paint1_linear_44_1501)"/>
<path d="M42.9147 60.3527L32.9297 61.7057L31.7221 52.7941L41.6959 51.4412L42.9147 60.3527Z" fill="url(#paint2_linear_44_1501)"/>
<path d="M43.9098 65.3396L33.2986 66.782C32.3594 66.905 31.4984 66.2565 31.3643 65.3172L30.8276 61.359C30.7046 60.4198 31.3531 59.5588 32.2923 59.4246L42.9035 57.9822C43.8427 57.8592 44.7037 58.5078 44.8379 59.447L45.3746 63.4052C45.5087 64.3445 44.849 65.2054 43.9098 65.3396Z" fill="url(#paint3_linear_44_1501)"/>
<path d="M50.9653 147.534L48.4159 147.881L37.0332 64.0312L39.5826 63.6958L50.9653 147.534Z" fill="url(#paint4_linear_44_1501)"/>
<path d="M16.6272 142.044L36.0605 61.2806L33.5558 60.6768L13.8877 142.413L16.6272 142.044Z" fill="url(#paint5_linear_44_1501)"/>
<path d="M83 133.021L42.2438 59.4917L39.9963 60.744L80.2605 133.401L83 133.021Z" fill="url(#paint6_linear_44_1501)"/>
<path d="M34.305 62.3654L15.9228 69.488L15.2295 67.6878L33.6118 60.5764L34.305 62.3654Z" fill="url(#paint7_linear_44_1501)"/>
<path d="M6.31792 51.2734L15.9787 49.9652C16.5936 49.8869 17.0297 49.3166 16.9403 48.7017L16.3812 44.5645C16.3029 43.9496 15.7327 43.5135 15.1177 43.603L5.45695 44.9112C4.84197 44.9894 4.40589 45.5597 4.49535 46.1747L5.05442 50.3118C5.13269 50.9268 5.69176 51.3628 6.31792 51.2734Z" fill="url(#paint8_linear_44_1501)"/>
<path d="M11.0365 53.7332L21.1892 52.3579C22.039 52.246 22.6316 51.4633 22.5198 50.6136L21.2451 41.2435C21.1333 40.3937 20.3506 39.8011 19.5008 39.913L9.34807 41.2883C8.49828 41.4001 7.90567 42.1828 8.01748 43.0326L9.29216 52.4026C9.40397 53.2524 10.1867 53.845 11.0365 53.7332Z" fill="url(#paint9_linear_44_1501)"/>
<path d="M53.2127 42.0262L65.0986 40.4049L63.9469 31.9182L52.0611 33.5283L53.2127 42.0262Z" fill="url(#paint10_linear_44_1501)"/>
<path d="M57.5288 37.1178L78.5498 48.5676L74.737 20.4575L57.5288 37.1178Z" fill="url(#paint11_linear_44_1501)"/>
<path d="M58.3114 54.0798L16.4259 59.7711C14.5474 60.0283 12.8255 58.7089 12.5683 56.8416L9.25861 32.4997C9.00143 30.6212 10.3208 28.8993 12.1881 28.6421L54.0737 22.9507C55.9522 22.6936 57.6741 24.013 57.9313 25.8803L61.241 50.2222C61.4981 52.1007 60.1787 53.8338 58.3114 54.0798Z" fill="url(#paint12_linear_44_1501)"/>
<path d="M20.9208 68.5934L14.7375 70.9862C14.3797 71.1204 13.9883 70.9527 13.8542 70.5949L12.9708 68.3139C12.8367 67.9561 13.0044 67.5647 13.3622 67.4306L19.5455 65.0377C19.9033 64.9036 20.2947 65.0713 20.4288 65.4291L21.3122 67.7101C21.4463 68.0567 21.2674 68.4481 20.9208 68.5934Z" fill="url(#paint13_linear_44_1501)"/>
<path d="M45.2851 26.5399C51.1331 26.5399 55.8739 21.7991 55.8739 15.9511C55.8739 10.1031 51.1331 5.3623 45.2851 5.3623C39.4371 5.3623 34.6963 10.1031 34.6963 15.9511C34.6963 21.7991 39.4371 26.5399 45.2851 26.5399Z" fill="url(#paint14_linear_44_1501)"/>
<path d="M50.3168 1.5049C42.3332 -1.27927 33.6117 2.93613 30.8276 10.9196C28.0434 18.9032 32.2588 27.6247 40.2423 30.4088C48.2258 33.193 56.9473 28.9776 59.7315 20.9941C62.5157 13.0106 58.3003 4.28907 50.3168 1.5049ZM50.5292 5.61966C50.7976 4.85932 51.7032 4.55743 52.3741 4.9935C54.4651 6.34645 56.1311 8.28084 57.171 10.5507C57.5064 11.2886 57.0815 12.1384 56.2876 12.2838L49.7353 13.5361C48.8073 13.715 48.0246 12.8093 48.3376 11.9148L50.5292 5.61966ZM39.3366 4.3338C41.5617 3.20448 44.0663 2.72368 46.5486 2.95849C47.3537 3.03676 47.8792 3.83064 47.6109 4.59098L45.4193 10.8973C45.1062 11.7918 43.9434 12.0154 43.3172 11.2998L38.9564 6.24582C38.4197 5.64203 38.621 4.70279 39.3366 4.3338ZM32.2364 15.3028C32.3035 14.0616 32.5383 12.8428 32.952 11.6576C33.3657 10.4836 33.936 9.36543 34.6628 8.3591C35.1324 7.6994 36.0828 7.65468 36.6083 8.25848L40.9691 13.3125C41.5953 14.0281 41.2039 15.1574 40.2647 15.3363L33.7012 16.5886C32.9073 16.734 32.2029 16.1078 32.2364 15.3028ZM40.041 26.2941C39.7727 27.0544 38.867 27.3563 38.1961 26.9202C36.1052 25.5673 34.4392 23.6329 33.3993 21.3631C33.0638 20.6251 33.4887 19.7753 34.2826 19.63L40.8349 18.3776C41.763 18.1987 42.5457 19.1044 42.2326 19.9989L40.041 26.2941ZM42.8923 15.1239C43.3507 13.8045 44.7931 13.1 46.1237 13.5696C47.4431 14.0281 48.1476 15.4705 47.6779 16.8011C47.2195 18.1205 45.7771 18.8249 44.4465 18.3553C43.1271 17.8857 42.4339 16.4433 42.8923 15.1239ZM51.2336 27.5799C49.0085 28.7093 46.5039 29.1901 44.0216 28.9553C43.2166 28.877 42.691 28.0831 42.9594 27.3228L45.1509 21.0165C45.464 20.122 46.6269 19.8983 47.253 20.6139L51.6138 25.6679C52.1393 26.2717 51.9492 27.211 51.2336 27.5799ZM53.9619 23.6441L49.6011 18.5901C48.975 17.8745 49.3663 16.7452 50.3056 16.5663L56.8691 15.3139C57.6629 15.1686 58.3674 15.7947 58.3338 16.5998C58.2667 17.8409 58.0319 19.0597 57.6182 20.2449C57.2045 21.419 56.6342 22.5371 55.9075 23.5435C55.4378 24.2032 54.4874 24.2591 53.9619 23.6441Z" fill="url(#paint15_linear_44_1501)"/>
<path d="M46.4592 16.365C46.2356 17.0135 45.5311 17.349 44.8826 17.1254C44.2341 16.9017 43.8986 16.1973 44.1223 15.5488C44.3459 14.9003 45.0503 14.5648 45.6989 14.7884C46.3362 15.0121 46.6828 15.7165 46.4592 16.365Z" fill="url(#paint16_linear_44_1501)"/>
<path d="M15.8668 30.1404C21.1529 30.1404 25.4381 25.8552 25.4381 20.5691C25.4381 15.283 21.1529 10.9978 15.8668 10.9978C10.5808 10.9978 6.29556 15.283 6.29556 20.5691C6.29556 25.8552 10.5808 30.1404 15.8668 30.1404Z" fill="url(#paint17_linear_44_1501)"/>
<path d="M14.0107 6.87206C6.4409 7.90075 1.14092 14.8668 2.16961 22.4366C3.19829 30.0064 10.1643 35.3064 17.7341 34.2777C25.3039 33.249 30.6039 26.283 29.5752 18.7132C28.5465 11.1434 21.5805 5.84337 14.0107 6.87206ZM15.8556 10.0923C15.755 9.36551 16.37 8.76172 17.0856 8.8288C19.3219 9.06361 21.4575 9.93576 23.2242 11.3446C23.7944 11.8031 23.7944 12.664 23.2242 13.1113L18.4609 16.8011C17.7788 17.3267 16.7837 16.9241 16.6719 16.0744L15.8556 10.0923ZM6.31791 13.648C7.64849 11.8254 9.47106 10.4166 11.562 9.58914C12.2441 9.32079 12.9932 9.74568 13.0827 10.4725L13.8989 16.4545C14.0107 17.3043 13.1609 17.964 12.367 17.6398L6.78752 15.3587C6.11664 15.068 5.89301 14.2406 6.31791 13.648ZM5.09913 25.3885C4.64069 24.371 4.32762 23.2752 4.18226 22.1682C4.0369 21.0613 4.0369 19.9208 4.20462 18.8138C4.31643 18.0982 5.05441 17.6621 5.73647 17.9417L11.316 20.2227C12.1099 20.5469 12.2552 21.6092 11.5732 22.1347L6.79871 25.8245C6.22846 26.2718 5.38985 26.0482 5.09913 25.3885ZM15.878 31.0463C15.9786 31.7731 15.3637 32.3769 14.6481 32.3098C12.4118 32.075 10.2761 31.2028 8.50946 29.7939C7.93921 29.3355 7.93921 28.4745 8.50946 28.0273L13.2727 24.3374C13.9548 23.8119 14.95 24.2144 15.0618 25.0642L15.878 31.0463ZM13.597 20.8824C13.4293 19.63 14.3014 18.4784 15.5537 18.3106C16.8061 18.1429 17.9577 19.0151 18.1255 20.2674C18.2932 21.5197 17.421 22.6714 16.1687 22.8391C14.9276 23.0068 13.7647 22.1347 13.597 20.8824ZM25.4157 27.5018C24.0852 29.3243 22.2626 30.7332 20.1717 31.5606C19.4896 31.829 18.7404 31.4041 18.651 30.6773L17.8348 24.6952C17.7229 23.8454 18.5727 23.1857 19.3666 23.51L24.9461 25.791C25.617 26.0705 25.8406 26.9091 25.4157 27.5018ZM26.0084 23.2193L20.4288 20.9383C19.635 20.614 19.4896 19.5518 20.1717 19.0262L24.9461 15.3364C25.5164 14.8891 26.355 15.1128 26.6569 15.7725C27.1153 16.79 27.4284 17.8857 27.5738 18.9927C27.7303 20.1108 27.7191 21.2402 27.5514 22.3471C27.4284 23.0627 26.6792 23.4876 26.0084 23.2193Z" fill="url(#paint18_linear_44_1501)"/>
<path d="M16.985 20.4239C17.0633 21.0389 16.6384 21.598 16.0234 21.6874C15.4084 21.7657 14.8493 21.3408 14.7599 20.7258C14.6816 20.1108 15.1065 19.5518 15.7215 19.4623C16.3365 19.3729 16.8955 19.8089 16.985 20.4239Z" fill="url(#paint19_linear_44_1501)"/>
</g>
<defs>
<linearGradient id="paint0_linear_44_1501" x1="1.64778" y1="35.8998" x2="15.6687" y2="36.3431" gradientUnits="userSpaceOnUse">
<stop stop-color="#2B2B2B"/>
<stop offset="0.3726" stop-color="#272727"/>
<stop offset="0.7404" stop-color="#1B1B1B"/>
<stop offset="1" stop-color="#0E0E0E"/>
</linearGradient>
<linearGradient id="paint1_linear_44_1501" x1="-0.0243981" y1="36.2028" x2="5.7352" y2="36.3849" gradientUnits="userSpaceOnUse">
<stop stop-color="#2B2B2B"/>
<stop offset="0.3726" stop-color="#272727"/>
<stop offset="0.7404" stop-color="#1B1B1B"/>
<stop offset="1" stop-color="#0E0E0E"/>
</linearGradient>
<linearGradient id="paint2_linear_44_1501" x1="31.6085" y1="56.3954" x2="43.0235" y2="56.7563" gradientUnits="userSpaceOnUse">
<stop stop-color="#2B2B2B"/>
<stop offset="0.3726" stop-color="#272727"/>
<stop offset="0.7404" stop-color="#1B1B1B"/>
<stop offset="1" stop-color="#0E0E0E"/>
</linearGradient>
<linearGradient id="paint3_linear_44_1501" x1="30.7809" y1="62.1463" x2="45.4271" y2="62.6093" gradientUnits="userSpaceOnUse">
<stop stop-color="#2B2B2B"/>
<stop offset="0.3726" stop-color="#272727"/>
<stop offset="0.7404" stop-color="#1B1B1B"/>
<stop offset="1" stop-color="#0E0E0E"/>
</linearGradient>
<linearGradient id="paint4_linear_44_1501" x1="35.7205" y1="105.524" x2="52.2791" y2="106.048" gradientUnits="userSpaceOnUse">
<stop stop-color="#2B2B2B"/>
<stop offset="0.3726" stop-color="#272727"/>
<stop offset="0.7404" stop-color="#1B1B1B"/>
<stop offset="1" stop-color="#0E0E0E"/>
</linearGradient>
<linearGradient id="paint5_linear_44_1501" x1="15.191" y1="101.273" x2="34.771" y2="101.892" gradientUnits="userSpaceOnUse">
<stop stop-color="#2B2B2B"/>
<stop offset="0.3726" stop-color="#272727"/>
<stop offset="0.7404" stop-color="#1B1B1B"/>
<stop offset="1" stop-color="#0E0E0E"/>
</linearGradient>
<linearGradient id="paint6_linear_44_1501" x1="38.8909" y1="95.7386" x2="84.133" y2="97.1689" gradientUnits="userSpaceOnUse">
<stop stop-color="#2B2B2B"/>
<stop offset="0.3726" stop-color="#272727"/>
<stop offset="0.7404" stop-color="#1B1B1B"/>
<stop offset="1" stop-color="#0E0E0E"/>
</linearGradient>
<linearGradient id="paint7_linear_44_1501" x1="15.3208" y1="64.729" x2="34.2091" y2="65.3262" gradientUnits="userSpaceOnUse">
<stop stop-color="#2B2B2B"/>
<stop offset="0.3726" stop-color="#272727"/>
<stop offset="0.7404" stop-color="#1B1B1B"/>
<stop offset="1" stop-color="#0E0E0E"/>
</linearGradient>
<linearGradient id="paint8_linear_44_1501" x1="4.43506" y1="47.2365" x2="16.983" y2="47.6332" gradientUnits="userSpaceOnUse">
<stop stop-color="#2B2B2B"/>
<stop offset="0.3726" stop-color="#272727"/>
<stop offset="0.7404" stop-color="#1B1B1B"/>
<stop offset="1" stop-color="#0E0E0E"/>
</linearGradient>
<linearGradient id="paint9_linear_44_1501" x1="7.88625" y1="46.5813" x2="22.6592" y2="47.0484" gradientUnits="userSpaceOnUse">
<stop stop-color="#2B2B2B"/>
<stop offset="0.3726" stop-color="#272727"/>
<stop offset="0.7404" stop-color="#1B1B1B"/>
<stop offset="1" stop-color="#0E0E0E"/>
</linearGradient>
<linearGradient id="paint10_linear_44_1501" x1="51.9552" y1="36.7604" x2="65.1994" y2="37.1792" gradientUnits="userSpaceOnUse">
<stop stop-color="#2B2B2B"/>
<stop offset="0.3726" stop-color="#272727"/>
<stop offset="0.7404" stop-color="#1B1B1B"/>
<stop offset="1" stop-color="#0E0E0E"/>
</linearGradient>
<linearGradient id="paint11_linear_44_1501" x1="57.628" y1="33.9151" x2="78.9948" y2="34.5906" gradientUnits="userSpaceOnUse">
<stop stop-color="#2B2B2B"/>
<stop offset="0.3726" stop-color="#272727"/>
<stop offset="0.7404" stop-color="#1B1B1B"/>
<stop offset="1" stop-color="#0E0E0E"/>
</linearGradient>
<linearGradient id="paint12_linear_44_1501" x1="8.95493" y1="40.5319" x2="61.5446" y2="42.1946" gradientUnits="userSpaceOnUse">
<stop stop-color="#2B2B2B"/>
<stop offset="0.3726" stop-color="#272727"/>
<stop offset="0.7404" stop-color="#1B1B1B"/>
<stop offset="1" stop-color="#0E0E0E"/>
</linearGradient>
<linearGradient id="paint13_linear_44_1501" x1="12.9273" y1="67.875" x2="21.3489" y2="68.1412" gradientUnits="userSpaceOnUse">
<stop stop-color="#2B2B2B"/>
<stop offset="0.3726" stop-color="#272727"/>
<stop offset="0.7404" stop-color="#1B1B1B"/>
<stop offset="1" stop-color="#0E0E0E"/>
</linearGradient>
<linearGradient id="paint14_linear_44_1501" x1="34.6908" y1="15.6213" x2="55.8742" y2="16.2911" gradientUnits="userSpaceOnUse">
<stop stop-color="#2B2B2B"/>
<stop offset="0.3726" stop-color="#272727"/>
<stop offset="0.7404" stop-color="#1B1B1B"/>
<stop offset="1" stop-color="#0E0E0E"/>
</linearGradient>
<linearGradient id="paint15_linear_44_1501" x1="29.9815" y1="15.4726" x2="60.5835" y2="16.4401" gradientUnits="userSpaceOnUse">
<stop stop-color="#2B2B2B"/>
<stop offset="0.3726" stop-color="#272727"/>
<stop offset="0.7404" stop-color="#1B1B1B"/>
<stop offset="1" stop-color="#0E0E0E"/>
</linearGradient>
<linearGradient id="paint16_linear_44_1501" x1="44.0414" y1="15.9172" x2="46.5236" y2="15.9956" gradientUnits="userSpaceOnUse">
<stop stop-color="#2B2B2B"/>
<stop offset="0.3726" stop-color="#272727"/>
<stop offset="0.7404" stop-color="#1B1B1B"/>
<stop offset="1" stop-color="#0E0E0E"/>
</linearGradient>
<linearGradient id="paint17_linear_44_1501" x1="6.29894" y1="20.2703" x2="25.4376" y2="20.8754" gradientUnits="userSpaceOnUse">
<stop stop-color="#2B2B2B"/>
<stop offset="0.3726" stop-color="#272727"/>
<stop offset="0.7404" stop-color="#1B1B1B"/>
<stop offset="1" stop-color="#0E0E0E"/>
</linearGradient>
<linearGradient id="paint18_linear_44_1501" x1="2.04415" y1="20.136" x2="29.6923" y2="21.0101" gradientUnits="userSpaceOnUse">
<stop stop-color="#2B2B2B"/>
<stop offset="0.3726" stop-color="#272727"/>
<stop offset="0.7404" stop-color="#1B1B1B"/>
<stop offset="1" stop-color="#0E0E0E"/>
</linearGradient>
<linearGradient id="paint19_linear_44_1501" x1="14.747" y1="20.5376" x2="16.9896" y2="20.6085" gradientUnits="userSpaceOnUse">
<stop stop-color="#2B2B2B"/>
<stop offset="0.3726" stop-color="#272727"/>
<stop offset="0.7404" stop-color="#1B1B1B"/>
<stop offset="1" stop-color="#0E0E0E"/>
</linearGradient>
</defs>
</svg>
