<svg width="256" height="350" viewBox="0 0 256 350" fill="none" xmlns="http://www.w3.org/2000/svg">
<path d="M13.8406 356.043L15.1242 353.362C15.9853 351.559 18.1462 350.811 19.9334 351.672L28.9832 356.027H38.0493L21.6394 348.114C19.8359 347.253 19.0885 345.092 19.9496 343.305L47.1966 286.732C48.0577 284.928 50.2186 284.181 52.0058 285.042L90.366 303.531C92.1695 304.392 92.9168 306.553 92.0557 308.341L69.1306 356.043H71.649L73.2737 352.664C73.5824 352.014 74.3623 351.737 75.0122 352.046L78.3267 353.638C78.9766 353.947 79.2528 354.727 78.9441 355.377L78.6354 356.027H82.2585L255.7 -4H242.588L225.317 31.8581C224.456 33.6615 222.295 34.4089 220.492 33.5478L182.131 15.0582C180.328 14.1971 179.581 12.0362 180.442 10.2327L187.314 -4H184.114L182.603 -0.864246C182.294 -0.214349 181.514 0.0618572 180.864 -0.246844L177.55 -1.83909C176.9 -2.14779 176.624 -2.92767 176.932 -3.57757L177.127 -3.98375H173.797L0.322754 356.043H13.8406ZM92.1207 300.006L53.7606 281.516C51.9571 280.655 51.2097 278.494 52.0708 276.707L79.3177 220.133C80.1789 218.346 82.3398 217.582 84.127 218.444L122.487 236.933C124.291 237.794 125.038 239.955 124.177 241.742L96.93 298.316C96.0688 300.119 93.9079 300.867 92.1207 300.006ZM116.232 151.829L154.592 170.319C156.396 171.18 157.143 173.341 156.282 175.144L129.035 231.718C128.174 233.521 126.013 234.269 124.209 233.407L85.8492 214.918C84.0458 214.057 83.2984 211.896 84.1595 210.092L111.406 153.519C112.284 151.715 114.445 150.968 116.232 151.829ZM116.264 143.478L143.511 86.9044C144.372 85.1009 146.533 84.3535 148.337 85.2146L186.697 103.704C188.5 104.565 189.248 106.726 188.387 108.53L161.14 165.103C160.279 166.907 158.118 167.654 156.314 166.793L117.954 148.303C116.151 147.426 115.387 145.265 116.264 143.478ZM83.9645 344.946L81.8036 349.43C81.4949 350.08 80.715 350.356 80.0651 350.048L76.7669 348.455C76.117 348.147 75.8408 347.367 76.1495 346.717L78.3104 342.233C78.6191 341.583 79.399 341.307 80.0489 341.615L83.3634 343.208C83.997 343.516 84.2732 344.296 83.9645 344.946ZM88.985 334.499L86.8241 338.983C86.5154 339.633 85.7355 339.909 85.0856 339.601L81.7874 338.008C81.1375 337.7 80.8613 336.92 81.17 336.27L83.3309 331.786C83.6396 331.136 84.4194 330.859 85.0693 331.168L88.3838 332.76C89.0337 333.069 89.3099 333.849 88.985 334.499ZM94.0217 324.068L91.8608 328.552C91.5521 329.202 90.7722 329.478 90.1223 329.17L86.8241 327.578C86.1742 327.269 85.898 326.489 86.2067 325.839L88.3676 321.355C88.6763 320.705 89.4561 320.429 90.106 320.737L93.4205 322.33C94.0542 322.638 94.3304 323.402 94.0217 324.068ZM99.0584 313.621L96.8975 318.105C96.5888 318.755 95.8089 319.031 95.159 318.723L91.8608 317.13C91.2109 316.822 90.9347 316.042 91.2434 315.392L93.4043 310.908C93.713 310.258 94.4929 309.982 95.1427 310.29L98.4572 311.883C99.0909 312.191 99.3671 312.971 99.0584 313.621ZM104.079 303.174L101.918 307.658C101.609 308.308 100.829 308.584 100.179 308.276L96.865 306.683C96.2151 306.375 95.9389 305.595 96.2476 304.945L98.4085 300.461C98.7172 299.811 99.4971 299.534 100.147 299.843L103.461 301.435C104.128 301.744 104.404 302.524 104.079 303.174ZM109.116 292.743L106.955 297.227C106.646 297.877 105.866 298.153 105.216 297.845L101.902 296.252C101.252 295.944 100.976 295.164 101.284 294.514L103.445 290.03C103.754 289.38 104.534 289.104 105.184 289.412L108.498 291.005C109.148 291.297 109.424 292.077 109.116 292.743ZM114.152 282.296L111.991 286.78C111.683 287.43 110.903 287.706 110.253 287.398L106.938 285.805C106.288 285.497 106.012 284.717 106.321 284.067L108.482 279.583C108.791 278.933 109.57 278.657 110.22 278.965L113.535 280.557C114.185 280.866 114.461 281.646 114.152 282.296ZM119.173 271.849L117.012 276.333C116.703 276.983 115.923 277.259 115.273 276.951L111.959 275.358C111.309 275.05 111.033 274.27 111.341 273.62L113.502 269.136C113.811 268.486 114.591 268.209 115.241 268.518L118.555 270.11C119.221 270.419 119.498 271.199 119.173 271.849ZM124.209 261.402L122.048 265.886C121.74 266.536 120.96 266.812 120.31 266.503L116.996 264.911C116.346 264.602 116.069 263.823 116.378 263.173L118.539 258.688C118.848 258.039 119.628 257.762 120.278 258.071L123.592 259.663C124.242 259.972 124.518 260.752 124.209 261.402ZM129.246 250.971L127.085 255.455C126.776 256.105 125.997 256.381 125.347 256.073L122.032 254.48C121.382 254.172 121.106 253.392 121.415 252.742L123.576 248.258C123.884 247.608 124.664 247.331 125.314 247.64L128.629 249.232C129.279 249.525 129.555 250.305 129.246 250.971ZM134.267 240.524L132.106 245.008C131.797 245.658 131.017 245.934 130.367 245.626L127.053 244.033C126.403 243.725 126.127 242.945 126.435 242.295L128.596 237.81C128.905 237.161 129.685 236.884 130.335 237.193L133.633 238.785C134.299 239.094 134.592 239.874 134.267 240.524ZM139.303 230.077L137.142 234.561C136.834 235.211 136.054 235.487 135.404 235.178L132.089 233.586C131.439 233.277 131.163 232.498 131.472 231.848L133.633 227.363C133.942 226.713 134.721 226.437 135.371 226.746L138.67 228.338C139.336 228.647 139.612 229.427 139.303 230.077ZM144.34 219.63L142.179 224.114C141.87 224.764 141.09 225.04 140.441 224.731L137.126 223.139C136.476 222.83 136.2 222.05 136.509 221.401L138.67 216.916C138.978 216.266 139.758 215.99 140.408 216.299L143.706 217.891C144.372 218.2 144.649 218.98 144.34 219.63ZM149.36 209.199L147.2 213.683C146.891 214.333 146.111 214.609 145.461 214.3L142.147 212.708C141.497 212.4 141.22 211.62 141.529 210.97L143.69 206.485C143.999 205.836 144.779 205.559 145.429 205.868L148.727 207.46C149.393 207.769 149.685 208.549 149.36 209.199ZM154.397 198.752L152.236 203.236C151.928 203.886 151.148 204.162 150.498 203.853L147.183 202.261C146.533 201.952 146.257 201.173 146.566 200.523L148.727 196.038C149.035 195.388 149.815 195.112 150.465 195.421L153.763 197.013C154.43 197.322 154.706 198.102 154.397 198.752ZM159.418 188.305L157.257 192.789C156.948 193.439 156.168 193.715 155.518 193.406L152.204 191.814C151.554 191.505 151.278 190.725 151.586 190.076L153.747 185.591C154.056 184.941 154.836 184.665 155.486 184.974L158.784 186.566C159.466 186.875 159.743 187.655 159.418 188.305ZM164.454 177.874L162.293 182.358C161.985 183.008 161.205 183.284 160.555 182.975L157.24 181.383C156.591 181.074 156.314 180.295 156.623 179.645L158.784 175.16C159.093 174.51 159.873 174.234 160.522 174.543L163.821 176.135C164.487 176.428 164.779 177.208 164.454 177.874ZM169.491 167.427L167.33 171.911C167.021 172.561 166.241 172.837 165.592 172.528L162.277 170.936C161.627 170.627 161.351 169.847 161.66 169.198L163.821 164.713C164.129 164.063 164.909 163.787 165.559 164.096L168.857 165.688C169.523 165.997 169.8 166.777 169.491 167.427ZM174.511 156.98L172.351 161.464C172.042 162.114 171.262 162.39 170.612 162.081L167.298 160.489C166.648 160.18 166.371 159.4 166.68 158.751L168.841 154.266C169.15 153.616 169.93 153.34 170.58 153.649L173.894 155.241C174.56 155.55 174.836 156.33 174.511 156.98ZM179.548 146.532L177.387 151.017C177.079 151.667 176.299 151.943 175.649 151.634L172.334 150.042C171.684 149.733 171.408 148.953 171.717 148.303L173.878 143.819C174.186 143.169 174.966 142.893 175.616 143.202L178.931 144.794C179.581 145.103 179.857 145.883 179.548 146.532ZM184.585 136.102L182.424 140.586C182.115 141.236 181.335 141.512 180.685 141.203L177.371 139.611C176.721 139.302 176.445 138.522 176.754 137.873L178.914 133.388C179.223 132.738 180.003 132.462 180.653 132.771L183.951 134.363C184.617 134.672 184.894 135.435 184.585 136.102ZM189.605 125.654L187.444 130.139C187.136 130.789 186.356 131.065 185.706 130.756L182.391 129.164C181.742 128.855 181.465 128.075 181.774 127.425L183.935 122.941C184.244 122.291 185.024 122.015 185.673 122.324L188.988 123.916C189.654 124.225 189.93 125.005 189.605 125.654ZM194.642 115.207L192.481 119.692C192.172 120.342 191.393 120.618 190.743 120.309L187.428 118.717C186.778 118.408 186.502 117.628 186.811 116.978L188.972 112.494C189.28 111.844 190.06 111.568 190.71 111.877L194.025 113.469C194.675 113.778 194.951 114.557 194.642 115.207ZM199.679 104.777L197.518 109.261C197.209 109.911 196.429 110.187 195.779 109.878L192.465 108.286C191.815 107.977 191.539 107.197 191.847 106.548L194.008 102.063C194.317 101.413 195.097 101.137 195.747 101.446L199.061 103.038C199.711 103.331 199.987 104.11 199.679 104.777ZM204.699 94.3294L202.538 98.8137C202.23 99.4636 201.45 99.7398 200.8 99.4311L197.485 97.8389C196.835 97.5302 196.559 96.7503 196.868 96.1004L199.029 91.6161C199.337 90.9662 200.117 90.69 200.767 90.9987L204.082 92.591C204.748 92.8997 205.024 93.6795 204.699 94.3294ZM209.736 83.8823L207.575 88.3666C207.266 89.0165 206.486 89.2927 205.836 88.984L202.538 87.3918C201.888 87.0831 201.612 86.3032 201.921 85.6533L204.082 81.169C204.39 80.5191 205.17 80.2429 205.82 80.5516L209.135 82.1439C209.768 82.4526 210.045 83.2325 209.736 83.8823ZM214.773 73.4352L212.612 77.9195C212.303 78.5694 211.523 78.8456 210.873 78.5369L207.575 76.9447C206.925 76.636 206.649 75.8561 206.958 75.2062L209.118 70.7219C209.427 70.072 210.207 69.7958 210.857 70.1045L214.171 71.6968C214.805 72.0055 215.081 72.7853 214.773 73.4352ZM219.793 63.0044L217.632 67.4887C217.323 68.1386 216.544 68.4148 215.894 68.1061L212.579 66.5138C211.929 66.2051 211.653 65.4253 211.962 64.7754L214.123 60.2911C214.431 59.6412 215.211 59.365 215.861 59.6737L219.176 61.2659C219.842 61.5584 220.118 62.3382 219.793 63.0044ZM242.166 2.09279L244.327 -2.3915C244.635 -3.0414 245.415 -3.31761 246.065 -3.00891L249.38 -1.41666C250.029 -1.10796 250.306 -0.328081 249.997 0.321816L247.836 4.80611C247.527 5.456 246.748 5.73221 246.098 5.42351L242.783 3.83126C242.117 3.52256 241.857 2.75893 242.166 2.09279ZM237.129 12.5399L239.29 8.05559C239.599 7.40569 240.378 7.12949 241.028 7.43819L244.343 9.03044C244.993 9.33914 245.269 10.119 244.96 10.7689L242.799 15.2532C242.491 15.9031 241.711 16.1793 241.061 15.8706L237.746 14.2784C237.097 13.9697 236.82 13.1898 237.129 12.5399ZM232.109 22.987L234.269 18.5027C234.578 17.8528 235.358 17.5766 236.008 17.8853L239.322 19.4775C239.972 19.7862 240.249 20.5661 239.94 21.216L237.779 25.7003C237.47 26.3502 236.69 26.6264 236.04 26.3177L232.742 24.7255C232.06 24.4168 231.784 23.6369 232.109 22.987ZM227.072 33.4341L229.233 28.9498C229.541 28.2999 230.321 28.0237 230.971 28.3324L234.286 29.9246C234.936 30.2333 235.212 31.0132 234.903 31.6631L232.742 36.1474C232.434 36.7973 231.654 37.0735 231.004 36.7648L227.706 35.1726C227.023 34.8476 226.763 34.084 227.072 33.4341ZM222.035 43.8649L224.196 39.3806C224.505 38.7307 225.285 38.4545 225.935 38.7632L229.249 40.3555C229.899 40.6642 230.175 41.4441 229.866 42.094L227.706 46.5782C227.397 47.2281 226.617 47.5044 225.967 47.1956L222.669 45.6034C222.003 45.2947 221.726 44.5148 222.035 43.8649ZM224.229 50.8188C224.878 51.1275 225.155 51.9074 224.846 52.5573L222.685 57.0416C222.376 57.6915 221.596 57.9677 220.947 57.659L217.648 56.0667C216.998 55.758 216.722 54.9782 217.031 54.3283L219.192 49.844C219.501 49.1941 220.28 48.9179 220.93 49.2266L224.229 50.8188ZM180.426 18.6002L218.786 37.0897C220.589 37.9509 221.337 40.1118 220.475 41.9152L193.228 98.4888C192.367 100.292 190.206 101.04 188.403 100.179L150.043 81.6889C148.239 80.8278 147.492 78.6669 148.353 76.8635L175.6 20.2899C176.477 18.5027 178.622 17.7391 180.426 18.6002ZM171.896 6.83703L174.057 2.35274C174.365 1.70285 175.145 1.42664 175.795 1.73534L179.109 3.32759C179.759 3.63629 180.036 4.41617 179.727 5.06606L177.566 9.55036C177.257 10.2003 176.477 10.4765 175.827 10.1678L172.513 8.57551C171.863 8.28306 171.587 7.50318 171.896 6.83703ZM166.875 17.2841L169.036 12.7998C169.345 12.1499 170.125 11.8737 170.775 12.1824L174.089 13.7747C174.739 14.0834 175.015 14.8633 174.706 15.5132L172.546 19.9975C172.237 20.6473 171.457 20.9236 170.807 20.6149L167.493 19.0226C166.826 18.7139 166.55 17.934 166.875 17.2841ZM161.838 27.7312L163.999 23.2469C164.308 22.597 165.088 22.3208 165.738 22.6295L169.052 24.2218C169.702 24.5305 169.978 25.3104 169.67 25.9603L167.509 30.4445C167.2 31.0944 166.42 31.3707 165.77 31.062L162.456 29.4697C161.806 29.161 161.53 28.3811 161.838 27.7312ZM156.802 38.1783L158.963 33.694C159.271 33.0441 160.051 32.7679 160.701 33.0766L164.016 34.6689C164.665 34.9776 164.942 35.7575 164.633 36.4074L162.472 40.8916C162.163 41.5415 161.383 41.8177 160.734 41.509L157.419 39.9168C156.769 39.6081 156.493 38.8282 156.802 38.1783ZM151.781 48.6092L153.942 44.1249C154.251 43.475 155.031 43.1988 155.681 43.5075L158.995 45.0997C159.645 45.4084 159.921 46.1883 159.613 46.8382L157.452 51.3225C157.143 51.9724 156.363 52.2486 155.713 51.9399L152.399 50.3476C151.733 50.0552 151.456 49.2753 151.781 48.6092ZM146.745 59.0563L148.905 54.572C149.214 53.9221 149.994 53.6459 150.644 53.9546L153.958 55.5468C154.608 55.8555 154.885 56.6354 154.576 57.2853L152.415 61.7696C152.106 62.4195 151.326 62.6957 150.676 62.387L147.362 60.7947C146.712 60.486 146.436 59.7062 146.745 59.0563ZM141.708 69.5034L143.869 65.0191C144.177 64.3692 144.957 64.093 145.607 64.4017L148.922 65.9939C149.572 66.3026 149.848 67.0825 149.539 67.7324L147.378 72.2167C147.07 72.8666 146.29 73.1428 145.64 72.8341L142.325 71.2418C141.675 70.9331 141.399 70.1533 141.708 69.5034ZM136.687 79.9505L138.848 75.4662C139.157 74.8163 139.937 74.5401 140.587 74.8488L143.901 76.441C144.551 76.7497 144.827 77.5296 144.519 78.1795L142.358 82.6638C142.049 83.3137 141.269 83.5899 140.619 83.2812L137.305 81.6889C136.639 81.3802 136.362 80.6004 136.687 79.9505ZM131.651 90.3813L133.812 85.897C134.12 85.2471 134.9 84.9709 135.55 85.2796L138.865 86.8719C139.514 87.1806 139.791 87.9604 139.482 88.6103L137.321 93.0946C137.012 93.7445 136.232 94.0207 135.583 93.712L132.268 92.1198C131.618 91.8111 131.342 91.0312 131.651 90.3813ZM126.614 100.828L128.775 96.3441C129.084 95.6942 129.863 95.418 130.513 95.7267L133.828 97.319C134.478 97.6277 134.754 98.4075 134.445 99.0574L132.284 103.542C131.976 104.192 131.196 104.468 130.546 104.159L127.231 102.567C126.582 102.258 126.305 101.478 126.614 100.828ZM121.594 111.276L123.754 106.791C124.063 106.141 124.843 105.865 125.493 106.174L128.807 107.766C129.457 108.075 129.734 108.855 129.425 109.505L127.264 113.989C126.955 114.639 126.175 114.915 125.525 114.606L122.211 113.014C121.545 112.705 121.269 111.925 121.594 111.276ZM116.557 121.706L118.718 117.222C119.026 116.572 119.806 116.296 120.456 116.605L123.771 118.197C124.421 118.506 124.697 119.285 124.388 119.935L122.227 124.42C121.919 125.07 121.139 125.346 120.489 125.037L117.174 123.445C116.524 123.152 116.248 122.373 116.557 121.706ZM111.52 132.153L113.681 127.669C113.99 127.019 114.77 126.743 115.42 127.052L118.734 128.644C119.384 128.953 119.66 129.733 119.351 130.382L117.19 134.867C116.882 135.517 116.102 135.793 115.452 135.484L112.138 133.892C111.488 133.583 111.211 132.803 111.52 132.153ZM106.5 142.601L108.661 138.116C108.969 137.466 109.749 137.19 110.399 137.499L113.714 139.091C114.363 139.4 114.64 140.18 114.331 140.83L112.17 145.314C111.861 145.964 111.081 146.24 110.432 145.931L107.117 144.339C106.451 144.03 106.175 143.25 106.5 142.601ZM101.463 153.048L103.624 148.563C103.933 147.913 104.712 147.637 105.362 147.946L108.677 149.538C109.327 149.847 109.603 150.627 109.294 151.277L107.133 155.761C106.825 156.411 106.045 156.687 105.395 156.378L102.08 154.786C101.43 154.477 101.154 153.698 101.463 153.048ZM96.4263 163.479L98.5872 158.994C98.8959 158.344 99.6758 158.068 100.326 158.377L103.64 159.969C104.29 160.278 104.566 161.058 104.258 161.708L102.097 166.192C101.788 166.842 101.008 167.118 100.358 166.809L97.0437 165.217C96.3938 164.908 96.1176 164.145 96.4263 163.479ZM91.4058 173.926L93.5667 169.441C93.8755 168.791 94.6553 168.515 95.3052 168.824L98.6197 170.416C99.2696 170.725 99.5458 171.505 99.2371 172.155L97.0762 176.639C96.7675 177.289 95.9876 177.565 95.3377 177.256L92.0232 175.664C91.3571 175.355 91.0809 174.575 91.4058 173.926ZM86.3691 184.373L88.5301 179.888C88.8388 179.239 89.6186 178.962 90.2685 179.271L93.583 180.863C94.2329 181.172 94.5091 181.952 94.2004 182.602L92.0395 187.086C91.7308 187.736 90.9509 188.012 90.301 187.703L86.9865 186.111C86.3366 185.802 86.0604 185.023 86.3691 184.373ZM81.3324 194.804L83.4933 190.319C83.802 189.669 84.5819 189.393 85.2318 189.702L88.5463 191.294C89.1962 191.603 89.4724 192.383 89.1637 193.033L87.0028 197.517C86.6941 198.167 85.9142 198.443 85.2643 198.134L81.9498 196.542C81.2999 196.25 81.0237 195.47 81.3324 194.804ZM76.312 205.251L78.4729 200.766C78.7816 200.116 79.5615 199.84 80.2114 200.149L83.5258 201.741C84.1757 202.05 84.4519 202.83 84.1432 203.48L81.9823 207.964C81.6736 208.614 80.8938 208.89 80.2439 208.581L76.9294 206.989C76.2795 206.68 75.987 205.901 76.312 205.251ZM71.2753 215.698L73.4362 211.213C73.7449 210.564 74.5248 210.287 75.1747 210.596L78.4891 212.188C79.139 212.497 79.4152 213.277 79.1065 213.927L76.9456 218.411C76.6369 219.061 75.8571 219.337 75.2072 219.028L71.8927 217.436C71.2428 217.128 70.9666 216.348 71.2753 215.698ZM66.2548 226.145L68.4157 221.661C68.7244 221.011 69.5043 220.734 70.1542 221.043L73.4687 222.635C74.1186 222.944 74.3948 223.724 74.0861 224.374L71.9252 228.858C71.6165 229.508 70.8366 229.784 70.1867 229.476L66.8722 227.883C66.2061 227.575 65.9299 226.795 66.2548 226.145ZM61.2181 236.576L63.379 232.091C63.6877 231.441 64.4676 231.165 65.1175 231.474L68.432 233.066C69.0819 233.375 69.3581 234.155 69.0494 234.805L66.8885 239.289C66.5798 239.939 65.7999 240.215 65.15 239.906L61.8355 238.314C61.1856 238.005 60.8932 237.242 61.2181 236.576ZM56.1814 247.023L58.3423 242.538C58.651 241.889 59.4309 241.612 60.0808 241.921L63.3953 243.513C64.0452 243.822 64.3214 244.602 64.0127 245.252L61.8518 249.736C61.5431 250.386 60.7632 250.662 60.1133 250.354L56.7988 248.761C56.1489 248.453 55.8727 247.673 56.1814 247.023ZM51.161 257.47L53.3219 252.986C53.6306 252.336 54.4104 252.059 55.0603 252.368L58.3748 253.96C59.0247 254.269 59.3009 255.049 58.9922 255.699L56.8313 260.183C56.5226 260.833 55.7427 261.109 55.0928 260.801L51.7784 259.208C51.1122 258.9 50.836 258.12 51.161 257.47ZM46.1243 267.917L48.2852 263.433C48.5939 262.783 49.3737 262.507 50.0236 262.815L53.3381 264.408C53.988 264.716 54.2642 265.496 53.9555 266.146L51.7946 270.63C51.4859 271.28 50.706 271.556 50.0561 271.248L46.7416 269.655C46.0918 269.347 45.7993 268.567 46.1243 267.917ZM41.0876 278.348L43.2485 273.864C43.5572 273.214 44.337 272.937 44.9869 273.246L48.3014 274.838C48.9513 275.147 49.2275 275.927 48.9188 276.577L46.7579 281.061C46.4492 281.711 45.6693 281.987 45.0194 281.679L41.7049 280.086C41.055 279.778 40.7789 278.998 41.0876 278.348ZM36.0671 288.795L38.228 284.311C38.5367 283.661 39.3166 283.385 39.9665 283.693L43.281 285.285C43.9309 285.594 44.2071 286.374 43.8983 287.024L41.7375 291.508C41.4288 292.158 40.6489 292.434 39.999 292.126L36.6845 290.533C36.0183 290.225 35.7421 289.445 36.0671 288.795ZM31.0304 299.242L33.1913 294.758C33.5 294.108 34.2799 293.832 34.9298 294.14L38.2443 295.733C38.8942 296.041 39.1703 296.821 38.8616 297.471L36.7008 301.955C36.3921 302.605 35.6122 302.881 34.9623 302.573L31.6478 300.98C30.9979 300.672 30.7217 299.892 31.0304 299.242ZM25.9937 309.673L28.1546 305.189C28.4633 304.539 29.2432 304.262 29.8931 304.571L33.2076 306.163C33.8575 306.472 34.1336 307.252 33.8249 307.902L31.664 312.386C31.3553 313.036 30.5755 313.312 29.9256 313.004L26.6111 311.411C25.9612 311.119 25.685 310.339 25.9937 309.673ZM20.9732 320.12L23.1341 315.636C23.4429 314.986 24.2227 314.71 24.8726 315.018L28.1871 316.611C28.837 316.919 29.1132 317.699 28.8045 318.349L26.6436 322.833C26.3349 323.483 25.555 323.759 24.9051 323.451L21.5906 321.858C20.9245 321.55 20.6483 320.77 20.9732 320.12ZM15.9365 330.567L18.0974 326.083C18.4061 325.433 19.186 325.157 19.8359 325.465L23.1504 327.058C23.8003 327.366 24.0765 328.146 23.7678 328.796L21.6069 333.28C21.2982 333.93 20.5183 334.206 19.8684 333.898L16.5539 332.306C15.904 331.997 15.6278 331.217 15.9365 330.567ZM10.8998 341.014L13.0607 336.53C13.3694 335.88 14.1493 335.604 14.7992 335.912L18.1137 337.505C18.7636 337.813 19.0398 338.593 18.7311 339.243L16.5702 343.727C16.2615 344.377 15.4816 344.654 14.8317 344.345L11.5172 342.753C10.8673 342.444 10.5911 341.664 10.8998 341.014ZM8.04028 346.961C8.34898 346.311 9.12885 346.035 9.77875 346.343L13.0932 347.936C13.7431 348.244 14.0193 349.024 13.7106 349.674L11.5497 354.158C11.241 354.808 10.4611 355.084 9.81125 354.776L6.49678 353.183C5.84688 352.875 5.57067 352.095 5.87937 351.445L8.04028 346.961Z" fill="url(#paint0_linear_44_1492)"/>
<defs>
<linearGradient id="paint0_linear_44_1492" x1="0.328603" y1="176.018" x2="255.704" y2="176.018" gradientUnits="userSpaceOnUse">
<stop stop-color="#2B2B2B"/>
<stop offset="0.3726" stop-color="#272727"/>
<stop offset="0.7404" stop-color="#1B1B1B"/>
<stop offset="1" stop-color="#0E0E0E"/>
</linearGradient>
</defs>
</svg>
