<svg width="368" height="350" viewBox="0 0 368 350" fill="none" xmlns="http://www.w3.org/2000/svg">
<g opacity="0.45" clip-path="url(#clip0_44_1529)">
<g opacity="0.5">
<path d="M354.859 -3.9837L353.576 -1.30289C352.715 0.50058 350.554 1.24796 348.766 0.386841L339.717 -3.96744H330.651L347.06 3.94507C348.864 4.80615 349.611 6.96704 348.75 8.75427L321.503 65.3278C320.642 67.1313 318.481 67.8787 316.694 67.0176L278.334 48.528C276.53 47.6669 275.783 45.506 276.644 43.7188L299.569 -3.9837H297.051L295.426 -0.604218C295.117 0.0456848 294.338 0.321899 293.688 0.0131836L290.373 -1.57907C289.723 -1.88779 289.447 -2.66763 289.756 -3.31754L290.064 -3.96744H286.441L113 356.059H126.112L143.383 320.201C144.244 318.398 146.405 317.65 148.208 318.512L186.568 337.001C188.372 337.862 189.119 340.023 188.258 341.827L181.385 356.059H184.586L186.097 352.924C186.406 352.274 187.186 351.997 187.836 352.306L191.15 353.898C191.8 354.207 192.076 354.987 191.768 355.637L191.573 356.043H194.903L368.377 -3.9837H354.859ZM276.579 52.0537L314.939 70.5432C316.743 71.4044 317.49 73.5653 316.629 75.3525L289.382 131.926C288.521 133.713 286.36 134.477 284.573 133.616L246.213 115.126C244.409 114.265 243.662 112.104 244.523 110.317L271.77 53.7434C272.631 51.94 274.792 51.1926 276.579 52.0537ZM252.468 200.23L214.108 181.741C212.304 180.88 211.557 178.719 212.418 176.915L239.665 120.342C240.526 118.538 242.687 117.791 244.49 118.652L282.851 137.141C284.654 138.003 285.401 140.163 284.54 141.967L257.293 198.54C256.416 200.344 254.255 201.091 252.468 200.23ZM252.435 208.581L225.188 265.155C224.327 266.958 222.166 267.706 220.363 266.845L182.003 248.355C180.199 247.494 179.452 245.333 180.313 243.53L207.56 186.956C208.421 185.153 210.582 184.405 212.386 185.266L250.746 203.756C252.549 204.633 253.313 206.794 252.435 208.581ZM284.735 7.11331L286.896 2.629C287.205 1.9791 287.985 1.70288 288.635 2.0116L291.933 3.60385C292.583 3.91254 292.859 4.69241 292.55 5.34232L290.389 9.82663C290.081 10.4765 289.301 10.7527 288.651 10.444L285.336 8.85178C284.703 8.54306 284.427 7.76321 284.735 7.11331ZM279.715 17.5604L281.876 13.0761C282.184 12.4262 282.964 12.15 283.614 12.4587L286.912 14.0509C287.562 14.3596 287.839 15.1395 287.53 15.7894L285.369 20.2737C285.06 20.9236 284.28 21.1998 283.63 20.8911L280.316 19.2989C279.666 18.9902 279.39 18.2103 279.715 17.5604ZM274.678 27.9912L276.839 23.5069C277.148 22.8571 277.928 22.5808 278.578 22.8895L281.876 24.4818C282.526 24.7905 282.802 25.5704 282.493 26.2203L280.332 30.7046C280.024 31.3545 279.244 31.6307 278.594 31.322L275.279 29.7297C274.646 29.421 274.369 28.6574 274.678 27.9912ZM269.641 38.4383L271.802 33.954C272.111 33.3041 272.891 33.0279 273.541 33.3366L276.839 34.9289C277.489 35.2376 277.765 36.0175 277.456 36.6674L275.296 41.1517C274.987 41.8016 274.207 42.0778 273.557 41.769L270.243 40.1768C269.609 39.8681 269.333 39.0882 269.641 38.4383ZM264.621 48.8854L266.782 44.4012C267.091 43.7513 267.87 43.475 268.52 43.7838L271.835 45.376C272.485 45.6847 272.761 46.4646 272.452 47.1145L270.291 51.5988C269.983 52.2487 269.203 52.5249 268.553 52.2162L265.238 50.6239C264.572 50.3152 264.296 49.5353 264.621 48.8854ZM259.584 59.3163L261.745 54.832C262.054 54.1821 262.834 53.9059 263.484 54.2146L266.798 55.8069C267.448 56.1155 267.724 56.8954 267.416 57.5453L265.255 62.0296C264.946 62.6795 264.166 62.9557 263.516 62.647L260.202 61.0548C259.552 60.7623 259.276 59.9824 259.584 59.3163ZM254.548 69.7634L256.709 65.2791C257.017 64.6292 257.797 64.353 258.447 64.6617L261.761 66.2539C262.411 66.5627 262.688 67.3425 262.379 67.9924L260.218 72.4767C259.909 73.1266 259.129 73.4028 258.479 73.0941L255.165 71.5019C254.515 71.1931 254.239 70.4133 254.548 69.7634ZM249.527 80.2105L251.688 75.7262C251.997 75.0763 252.777 74.8001 253.427 75.1088L256.741 76.701C257.391 77.0097 257.667 77.7896 257.358 78.4395L255.197 82.9238C254.889 83.5737 254.109 83.8499 253.459 83.5412L250.145 81.9489C249.478 81.6403 249.202 80.8604 249.527 80.2105ZM244.49 90.6576L246.651 86.1733C246.96 85.5234 247.74 85.2472 248.39 85.5559L251.704 87.1481C252.354 87.4568 252.63 88.2367 252.322 88.8866L250.161 93.3709C249.852 94.0208 249.072 94.297 248.422 93.9883L245.108 92.396C244.458 92.0873 244.182 91.3075 244.49 90.6576ZM239.454 101.088L241.615 96.6041C241.923 95.9542 242.703 95.678 243.353 95.9867L246.668 97.579C247.317 97.8877 247.594 98.6676 247.285 99.3175L245.124 103.802C244.815 104.452 244.036 104.728 243.386 104.419L240.071 102.827C239.421 102.534 239.145 101.755 239.454 101.088ZM234.433 111.536L236.594 107.051C236.903 106.401 237.683 106.125 238.333 106.434L241.647 108.026C242.297 108.335 242.573 109.115 242.265 109.765L240.104 114.249C239.795 114.899 239.015 115.175 238.365 114.866L235.067 113.274C234.401 112.965 234.108 112.185 234.433 111.536ZM229.397 121.983L231.557 117.498C231.866 116.848 232.646 116.572 233.296 116.881L236.61 118.473C237.26 118.782 237.537 119.562 237.228 120.212L235.067 124.696C234.758 125.346 233.978 125.622 233.328 125.313L230.03 123.721C229.364 123.412 229.088 122.633 229.397 121.983ZM224.36 132.43L226.521 127.945C226.829 127.296 227.609 127.019 228.259 127.328L231.574 128.92C232.224 129.229 232.5 130.009 232.191 130.659L230.03 135.143C229.722 135.793 228.942 136.069 228.292 135.76L224.994 134.168C224.327 133.859 224.051 133.08 224.36 132.43ZM219.339 142.861L221.5 138.376C221.809 137.726 222.589 137.45 223.239 137.759L226.553 139.351C227.203 139.66 227.479 140.44 227.171 141.09L225.01 145.574C224.701 146.224 223.921 146.5 223.271 146.191L219.973 144.599C219.307 144.29 219.014 143.51 219.339 142.861ZM214.303 153.308L216.464 148.823C216.772 148.173 217.552 147.897 218.202 148.206L221.517 149.798C222.166 150.107 222.443 150.887 222.134 151.537L219.973 156.021C219.664 156.671 218.884 156.947 218.235 156.638L214.936 155.046C214.27 154.737 213.994 153.958 214.303 153.308ZM209.282 163.755L211.443 159.27C211.752 158.621 212.532 158.344 213.182 158.653L216.496 160.245C217.146 160.554 217.422 161.334 217.114 161.984L214.953 166.468C214.644 167.118 213.864 167.394 213.214 167.085L209.916 165.493C209.234 165.185 208.957 164.405 209.282 163.755ZM204.246 174.186L206.406 169.701C206.715 169.051 207.495 168.775 208.145 169.084L211.459 170.676C212.109 170.985 212.386 171.765 212.077 172.415L209.916 176.899C209.607 177.549 208.827 177.825 208.177 177.516L204.879 175.924C204.213 175.632 203.921 174.852 204.246 174.186ZM199.209 184.633L201.37 180.148C201.678 179.499 202.458 179.222 203.108 179.531L206.423 181.123C207.073 181.432 207.349 182.212 207.04 182.862L204.879 187.346C204.571 187.996 203.791 188.272 203.141 187.963L199.843 186.371C199.176 186.062 198.9 185.283 199.209 184.633ZM194.188 195.08L196.349 190.596C196.658 189.946 197.438 189.669 198.088 189.978L201.402 191.57C202.052 191.879 202.328 192.659 202.02 193.309L199.859 197.793C199.55 198.443 198.77 198.719 198.12 198.411L194.806 196.818C194.14 196.51 193.863 195.73 194.188 195.08ZM189.152 205.527L191.313 201.043C191.621 200.393 192.401 200.117 193.051 200.425L196.366 202.017C197.015 202.326 197.292 203.106 196.983 203.756L194.822 208.24C194.513 208.89 193.733 209.166 193.084 208.858L189.769 207.265C189.119 206.957 188.843 206.177 189.152 205.527ZM184.115 215.958L186.276 211.473C186.585 210.824 187.364 210.547 188.014 210.856L191.329 212.448C191.979 212.757 192.255 213.537 191.946 214.187L189.785 218.671C189.477 219.321 188.697 219.597 188.047 219.288L184.749 217.696C184.082 217.388 183.806 216.624 184.115 215.958ZM179.095 226.405L181.255 221.921C181.564 221.271 182.344 220.994 182.994 221.303L186.308 222.895C186.958 223.204 187.234 223.984 186.926 224.634L184.765 229.118C184.456 229.768 183.676 230.044 183.026 229.736L179.712 228.143C179.046 227.835 178.77 227.055 179.095 226.405ZM174.058 236.852L176.219 232.368C176.527 231.718 177.307 231.442 177.957 231.75L181.272 233.342C181.922 233.651 182.198 234.431 181.889 235.081L179.728 239.565C179.419 240.215 178.64 240.491 177.99 240.183L174.675 238.59C174.025 238.282 173.749 237.502 174.058 236.852ZM169.021 247.283L171.182 242.799C171.491 242.149 172.271 241.872 172.921 242.181L176.235 243.773C176.885 244.082 177.161 244.862 176.852 245.512L174.691 249.996C174.383 250.646 173.603 250.922 172.953 250.614L169.639 249.021C168.989 248.729 168.712 247.949 169.021 247.283ZM164.001 257.73L166.162 253.246C166.47 252.596 167.25 252.319 167.9 252.628L171.215 254.22C171.864 254.529 172.141 255.309 171.832 255.959L169.671 260.443C169.362 261.093 168.582 261.369 167.933 261.061L164.618 259.468C163.952 259.16 163.676 258.38 164.001 257.73ZM158.964 268.177L161.125 263.693C161.434 263.043 162.213 262.767 162.863 263.075L166.162 264.668C166.811 264.976 167.088 265.756 166.779 266.406L164.618 270.89C164.309 271.54 163.529 271.816 162.88 271.508L159.565 269.915C158.931 269.607 158.655 268.827 158.964 268.177ZM153.927 278.624L156.088 274.14C156.397 273.49 157.177 273.214 157.827 273.522L161.125 275.115C161.775 275.423 162.051 276.203 161.742 276.853L159.581 281.337C159.273 281.987 158.493 282.264 157.843 281.955L154.528 280.363C153.895 280.054 153.619 279.274 153.927 278.624ZM148.907 289.055L151.068 284.571C151.376 283.921 152.156 283.645 152.806 283.953L156.121 285.545C156.771 285.854 157.047 286.634 156.738 287.284L154.577 291.768C154.268 292.418 153.489 292.694 152.839 292.386L149.524 290.793C148.858 290.501 148.582 289.721 148.907 289.055ZM126.534 349.967L124.373 354.451C124.064 355.101 123.285 355.377 122.635 355.068L119.32 353.476C118.67 353.167 118.394 352.387 118.703 351.738L120.864 347.253C121.172 346.603 121.952 346.327 122.602 346.636L125.917 348.228C126.583 348.537 126.843 349.3 126.534 349.967ZM131.571 339.519L129.41 344.004C129.101 344.654 128.321 344.93 127.671 344.621L124.357 343.029C123.707 342.72 123.431 341.94 123.74 341.29L125.9 336.806C126.209 336.156 126.989 335.88 127.639 336.189L130.953 337.781C131.603 338.09 131.88 338.87 131.571 339.519ZM136.591 329.072L134.43 333.557C134.122 334.207 133.342 334.483 132.692 334.174L129.377 332.582C128.728 332.273 128.451 331.493 128.76 330.843L130.921 326.359C131.23 325.709 132.009 325.433 132.659 325.742L135.958 327.334C136.64 327.643 136.916 328.422 136.591 329.072ZM141.628 318.625L139.467 323.11C139.158 323.759 138.378 324.036 137.729 323.727L134.414 322.135C133.764 321.826 133.488 321.046 133.797 320.396L135.958 315.912C136.266 315.262 137.046 314.986 137.696 315.295L140.994 316.887C141.677 317.212 141.937 317.975 141.628 318.625ZM146.665 308.194L144.504 312.679C144.195 313.329 143.415 313.605 142.765 313.296L139.451 311.704C138.801 311.395 138.525 310.615 138.833 309.965L140.994 305.481C141.303 304.831 142.083 304.555 142.733 304.864L146.031 306.456C146.697 306.765 146.973 307.545 146.665 308.194ZM144.471 301.241C143.821 300.932 143.545 300.152 143.854 299.502L146.015 295.018C146.323 294.368 147.103 294.092 147.753 294.4L151.051 295.993C151.701 296.301 151.978 297.081 151.669 297.731L149.508 302.215C149.199 302.865 148.419 303.141 147.77 302.833L144.471 301.241ZM188.274 333.459L149.914 314.97C148.111 314.108 147.363 311.948 148.224 310.144L175.471 253.571C176.332 251.767 178.493 251.02 180.297 251.881L218.657 270.37C220.46 271.231 221.208 273.392 220.347 275.196L193.1 331.769C192.222 333.557 190.078 334.32 188.274 333.459ZM196.804 345.222L194.643 349.707C194.335 350.356 193.555 350.633 192.905 350.324L189.59 348.732C188.94 348.423 188.664 347.643 188.973 346.993L191.134 342.509C191.443 341.859 192.222 341.583 192.872 341.892L196.187 343.484C196.837 343.776 197.113 344.556 196.804 345.222ZM201.825 334.775L199.664 339.259C199.355 339.909 198.575 340.186 197.925 339.877L194.611 338.285C193.961 337.976 193.685 337.196 193.993 336.546L196.154 332.062C196.463 331.412 197.243 331.136 197.893 331.444L201.207 333.037C201.873 333.345 202.15 334.125 201.825 334.775ZM206.861 324.328L204.7 328.812C204.392 329.462 203.612 329.738 202.962 329.43L199.648 327.838C198.998 327.529 198.721 326.749 199.03 326.099L201.191 321.615C201.5 320.965 202.28 320.689 202.93 320.997L206.244 322.59C206.894 322.898 207.17 323.678 206.861 324.328ZM211.898 313.881L209.737 318.365C209.428 319.015 208.649 319.291 207.999 318.983L204.684 317.39C204.034 317.082 203.758 316.302 204.067 315.652L206.228 311.168C206.536 310.518 207.316 310.242 207.966 310.55L211.281 312.143C211.931 312.451 212.207 313.231 211.898 313.881ZM216.919 303.45L214.758 307.934C214.449 308.584 213.669 308.861 213.019 308.552L209.705 306.96C209.055 306.651 208.779 305.871 209.087 305.221L211.248 300.737C211.557 300.087 212.337 299.811 212.987 300.119L216.301 301.712C216.967 302.004 217.243 302.784 216.919 303.45ZM221.955 293.003L219.794 297.487C219.486 298.137 218.706 298.413 218.056 298.105L214.741 296.513C214.091 296.204 213.815 295.424 214.124 294.774L216.285 290.29C216.594 289.64 217.373 289.364 218.023 289.672L221.338 291.265C221.988 291.573 222.264 292.353 221.955 293.003ZM226.992 282.556L224.831 287.04C224.522 287.69 223.742 287.966 223.093 287.658L219.778 286.065C219.128 285.757 218.852 284.977 219.161 284.327L221.322 279.843C221.63 279.193 222.41 278.917 223.06 279.225L226.375 280.817C227.024 281.126 227.301 281.906 226.992 282.556ZM232.012 272.109L229.852 276.593C229.543 277.243 228.763 277.519 228.113 277.211L224.799 275.618C224.149 275.31 223.872 274.53 224.181 273.88L226.342 269.396C226.651 268.746 227.431 268.469 228.081 268.778L231.395 270.37C232.061 270.679 232.337 271.459 232.012 272.109ZM237.049 261.678L234.888 266.162C234.579 266.812 233.8 267.088 233.15 266.78L229.835 265.187C229.185 264.879 228.909 264.099 229.218 263.449L231.379 258.965C231.687 258.315 232.467 258.039 233.117 258.347L236.432 259.94C237.082 260.248 237.358 261.028 237.049 261.678ZM242.086 251.231L239.925 255.715C239.616 256.365 238.836 256.641 238.186 256.333L234.872 254.74C234.222 254.432 233.946 253.652 234.255 253.002L236.415 248.518C236.724 247.868 237.504 247.591 238.154 247.9L241.468 249.492C242.118 249.801 242.395 250.581 242.086 251.231ZM247.106 240.784L244.945 245.268C244.637 245.918 243.857 246.194 243.207 245.886L239.892 244.293C239.243 243.985 238.966 243.205 239.275 242.555L241.436 238.07C241.745 237.421 242.524 237.144 243.174 237.453L246.489 239.045C247.155 239.354 247.431 240.134 247.106 240.784ZM252.143 230.353L249.982 234.837C249.673 235.487 248.893 235.763 248.244 235.455L244.929 233.862C244.279 233.554 244.003 232.774 244.312 232.124L246.473 227.64C246.781 226.99 247.561 226.714 248.211 227.022L251.526 228.614C252.175 228.907 252.452 229.687 252.143 230.353ZM257.18 219.906L255.019 224.39C254.71 225.04 253.93 225.316 253.28 225.008L249.966 223.415C249.316 223.107 249.04 222.327 249.348 221.677L251.509 217.193C251.818 216.543 252.598 216.266 253.248 216.575L256.562 218.167C257.212 218.476 257.488 219.256 257.18 219.906ZM262.2 209.459L260.039 213.943C259.731 214.593 258.951 214.869 258.301 214.56L254.986 212.968C254.336 212.66 254.06 211.88 254.369 211.23L256.53 206.745C256.838 206.096 257.618 205.819 258.268 206.128L261.583 207.72C262.249 208.029 262.525 208.809 262.2 209.459ZM267.237 199.012L265.076 203.496C264.767 204.146 263.987 204.422 263.337 204.113L260.023 202.521C259.373 202.212 259.097 201.433 259.406 200.783L261.566 196.298C261.875 195.648 262.655 195.372 263.305 195.681L266.619 197.273C267.269 197.582 267.546 198.362 267.237 199.012ZM272.274 188.581L270.113 193.065C269.804 193.715 269.024 193.991 268.374 193.683L265.06 192.09C264.41 191.782 264.134 191.002 264.442 190.352L266.603 185.868C266.912 185.218 267.692 184.941 268.342 185.25L271.656 186.842C272.306 187.151 272.582 187.915 272.274 188.581ZM277.294 178.134L275.133 182.618C274.824 183.268 274.045 183.544 273.395 183.235L270.08 181.643C269.43 181.334 269.154 180.555 269.463 179.905L271.624 175.42C271.932 174.771 272.712 174.494 273.362 174.803L276.677 176.395C277.343 176.704 277.619 177.484 277.294 178.134ZM282.331 167.687L280.17 172.171C279.861 172.821 279.081 173.097 278.431 172.788L275.117 171.196C274.467 170.887 274.191 170.107 274.499 169.458L276.66 164.973C276.969 164.323 277.749 164.047 278.399 164.356L281.713 165.948C282.363 166.257 282.639 167.037 282.331 167.687ZM287.367 157.256L285.206 161.74C284.898 162.39 284.118 162.666 283.468 162.357L280.154 160.765C279.504 160.457 279.227 159.677 279.536 159.027L281.697 154.542C282.006 153.893 282.786 153.616 283.436 153.925L286.75 155.517C287.4 155.81 287.676 156.59 287.367 157.256ZM292.388 146.809L290.227 151.293C289.918 151.943 289.138 152.219 288.488 151.91L285.174 150.318C284.524 150.009 284.248 149.23 284.557 148.58L286.717 144.095C287.026 143.445 287.806 143.169 288.456 143.478L291.77 145.07C292.42 145.379 292.713 146.159 292.388 146.809ZM297.425 136.362L295.264 140.846C294.955 141.496 294.175 141.772 293.525 141.463L290.211 139.871C289.561 139.562 289.285 138.782 289.593 138.133L291.754 133.648C292.063 132.998 292.843 132.722 293.493 133.031L296.807 134.623C297.457 134.932 297.733 135.712 297.425 136.362ZM302.445 125.914L300.284 130.399C299.975 131.049 299.196 131.325 298.546 131.016L295.231 129.424C294.581 129.115 294.305 128.335 294.614 127.685L296.775 123.201C297.083 122.551 297.863 122.275 298.513 122.584L301.828 124.176C302.494 124.485 302.77 125.265 302.445 125.914ZM307.482 115.484L305.321 119.968C305.012 120.618 304.232 120.894 303.582 120.585L300.268 118.993C299.618 118.684 299.342 117.905 299.65 117.255L301.811 112.77C302.12 112.12 302.9 111.844 303.55 112.153L306.864 113.745C307.514 114.054 307.807 114.818 307.482 115.484ZM312.518 105.037L310.358 109.521C310.049 110.171 309.269 110.447 308.619 110.138L305.305 108.546C304.655 108.237 304.378 107.457 304.687 106.808L306.848 102.323C307.157 101.673 307.937 101.397 308.587 101.706L311.901 103.298C312.551 103.607 312.827 104.387 312.518 105.037ZM317.539 94.5894L315.378 99.0738C315.069 99.7236 314.289 99.9998 313.639 99.6911L310.325 98.0989C309.675 97.7902 309.399 97.0103 309.708 96.3604L311.869 91.8761C312.177 91.2262 312.957 90.95 313.607 91.2587L316.921 92.851C317.588 93.1597 317.864 93.9395 317.539 94.5894ZM322.576 84.1424L320.415 88.6266C320.106 89.2766 319.326 89.5528 318.676 89.244L315.362 87.6518C314.712 87.3431 314.436 86.5632 314.744 85.9133L316.905 81.429C317.214 80.7791 317.994 80.5029 318.644 80.8116L321.958 82.4039C322.608 82.7126 322.901 83.4925 322.576 84.1424ZM327.612 73.7115L325.451 78.1958C325.143 78.8457 324.363 79.1219 323.713 78.8132L320.398 77.2209C319.749 76.9123 319.472 76.1324 319.781 75.4825L321.942 70.9982C322.251 70.3483 323.031 70.0721 323.68 70.3808L326.995 71.973C327.645 72.2817 327.921 73.0616 327.612 73.7115ZM332.633 63.2644L330.472 67.7487C330.163 68.3986 329.383 68.6748 328.733 68.3661L325.419 66.7739C324.769 66.4651 324.493 65.6853 324.801 65.0354L326.962 60.5511C327.271 59.9012 328.051 59.625 328.701 59.9337L332.015 61.5259C332.681 61.8346 332.958 62.6145 332.633 63.2644ZM337.669 52.8173L335.509 57.3016C335.2 57.9515 334.42 58.2277 333.77 57.919L330.456 56.3268C329.806 56.018 329.529 55.2382 329.838 54.5883L331.999 50.104C332.308 49.4541 333.088 49.1779 333.738 49.4866L337.052 51.0788C337.702 51.3875 337.978 52.1674 337.669 52.8173ZM342.706 42.3865L340.545 46.8708C340.237 47.5207 339.457 47.7969 338.807 47.4882L335.492 45.8959C334.842 45.5872 334.566 44.8073 334.875 44.1574L337.036 39.6731C337.344 39.0232 338.124 38.747 338.774 39.0558L342.089 40.648C342.739 40.9404 343.015 41.7203 342.706 42.3865ZM347.727 31.9394L345.566 36.4236C345.257 37.0735 344.477 37.3498 343.827 37.041L340.513 35.4488C339.863 35.1401 339.587 34.3602 339.895 33.7103L342.056 29.226C342.365 28.5761 343.145 28.2999 343.795 28.6086L347.109 30.2009C347.775 30.5096 348.052 31.2895 347.727 31.9394ZM352.763 21.4923L350.602 25.9766C350.294 26.6265 349.514 26.9026 348.864 26.594L345.549 25.0017C344.9 24.693 344.623 23.9131 344.932 23.2632L347.093 18.779C347.402 18.1291 348.182 17.8528 348.831 18.1616L352.146 19.7538C352.796 20.0625 353.072 20.8424 352.763 21.4923ZM357.8 11.0452L355.639 15.5295C355.33 16.1794 354.551 16.4555 353.901 16.1469L350.586 14.5546C349.936 14.2459 349.66 13.466 349.969 12.8161L352.13 8.33185C352.438 7.68198 353.218 7.40576 353.868 7.71445L357.183 9.3067C357.832 9.61542 358.109 10.3953 357.8 11.0452ZM360.66 5.0986C360.351 5.7485 359.571 6.02472 358.921 5.716L355.607 4.12375C354.957 3.81506 354.68 3.03519 354.989 2.38528L357.15 -2.09897C357.459 -2.74887 358.239 -3.02509 358.889 -2.7164L362.203 -1.12415C362.853 -0.81543 363.129 -0.035553 362.82 0.614319L360.66 5.0986Z" fill="url(#paint0_linear_44_1529)"/>
<g opacity="0.6">
<path d="M339.7 -3.98368L348.75 0.370637C350.554 1.23175 352.698 0.484345 353.559 -1.31912L354.843 -3.99995H339.7V-3.98368Z" fill="url(#paint1_linear_44_1529)"/>
<path opacity="0.5" d="M347.044 3.92872L330.634 -3.96751H299.569L276.595 43.7024C275.734 45.5059 276.482 47.6506 278.285 48.5117L316.645 67.0012C318.449 67.8624 320.594 67.115 321.471 65.3115L348.718 8.73798C349.595 6.95076 348.832 4.78983 347.044 3.92872Z" fill="url(#paint2_linear_44_1529)"/>
<path opacity="0.5" d="M246.197 115.126C244.393 114.265 243.646 112.104 244.507 110.317L271.754 53.7435C272.615 51.94 274.776 51.1926 276.563 52.0537L314.923 70.5433C316.727 71.4044 317.474 73.5653 316.613 75.3525L289.366 131.926C288.505 133.713 286.344 134.477 284.557 133.616L246.197 115.126Z" fill="url(#paint3_linear_44_1529)"/>
<path opacity="0.5" d="M214.108 181.741C212.304 180.88 211.557 178.719 212.418 176.915L239.665 120.342C240.526 118.538 242.687 117.791 244.491 118.652L282.851 137.141C284.654 138.003 285.402 140.164 284.54 141.967L257.294 198.541C256.432 200.344 254.272 201.091 252.468 200.23L214.108 181.741Z" fill="url(#paint4_linear_44_1529)"/>
<path opacity="0.5" d="M182.003 248.355C180.2 247.494 179.452 245.333 180.313 243.53L207.56 186.956C208.421 185.153 210.582 184.405 212.369 185.266L250.73 203.756C252.533 204.617 253.28 206.778 252.419 208.581L225.172 265.155C224.311 266.958 222.15 267.706 220.347 266.845L182.003 248.355Z" fill="url(#paint5_linear_44_1529)"/>
<path opacity="0.5" d="M149.914 314.97C148.111 314.108 147.363 311.947 148.225 310.144L175.471 253.57C176.333 251.767 178.493 251.02 180.297 251.881L218.657 270.37C220.461 271.231 221.208 273.392 220.347 275.196L193.1 331.769C192.239 333.557 190.078 334.32 188.274 333.459L149.914 314.97Z" fill="url(#paint6_linear_44_1529)"/>
<path d="M181.386 356.059L188.258 341.81C189.119 340.007 188.372 337.862 186.568 336.985L148.208 318.512C146.405 317.65 144.26 318.398 143.383 320.201L126.112 356.059H181.386Z" fill="url(#paint7_linear_44_1529)"/>
</g>
</g>
<g opacity="0.5">
<path d="M360.98 356.051L360.317 354.666C359.872 353.734 358.755 353.347 357.831 353.792L353.155 356.042H348.47L356.95 351.954C357.882 351.509 358.268 350.392 357.823 349.469L343.743 320.234C343.298 319.302 342.182 318.916 341.258 319.361L321.436 328.916C320.504 329.361 320.117 330.477 320.562 331.401L332.409 356.051H331.108L330.268 354.305C330.108 353.969 329.705 353.826 329.37 353.986L327.657 354.808C327.321 354.968 327.178 355.371 327.338 355.707L327.497 356.042H325.625L236 170H242.775L251.7 188.53C252.145 189.461 253.262 189.848 254.194 189.403L274.016 179.848C274.948 179.403 275.334 178.287 274.889 177.355L271.338 170H272.992L273.773 171.62C273.932 171.956 274.335 172.099 274.671 171.939L276.384 171.117C276.72 170.957 276.862 170.554 276.703 170.218L276.602 170.008H278.323L367.965 356.051H360.98ZM320.529 327.094L340.351 317.539C341.283 317.094 341.669 315.978 341.224 315.054L327.145 285.82C326.7 284.896 325.583 284.502 324.66 284.947L304.837 294.501C303.905 294.946 303.519 296.063 303.964 296.986L318.044 326.221C318.489 327.153 319.605 327.539 320.529 327.094ZM308.069 250.524L288.247 260.079C287.315 260.523 286.929 261.64 287.374 262.572L301.454 291.806C301.899 292.738 303.015 293.124 303.947 292.679L323.77 283.125C324.702 282.68 325.088 281.563 324.643 280.631L310.563 251.397C310.11 250.465 308.993 250.079 308.069 250.524ZM308.053 246.209L293.973 216.974C293.528 216.043 292.411 215.656 291.479 216.101L271.657 225.656C270.725 226.101 270.339 227.217 270.784 228.149L284.863 257.383C285.308 258.315 286.425 258.702 287.357 258.257L307.18 248.702C308.111 248.249 308.506 247.132 308.053 246.209ZM324.744 350.317L325.86 352.634C326.02 352.97 326.423 353.112 326.759 352.953L328.463 352.13C328.799 351.971 328.941 351.568 328.782 351.232L327.665 348.914C327.506 348.579 327.103 348.436 326.767 348.595L325.054 349.418C324.727 349.578 324.584 349.981 324.744 350.317ZM322.149 344.918L323.266 347.235C323.425 347.571 323.828 347.714 324.164 347.554L325.869 346.732C326.204 346.572 326.347 346.169 326.188 345.833L325.071 343.516C324.911 343.18 324.508 343.037 324.173 343.197L322.46 344.02C322.124 344.179 321.981 344.582 322.149 344.918ZM319.547 339.528L320.663 341.845C320.823 342.181 321.226 342.324 321.562 342.164L323.266 341.341C323.602 341.182 323.744 340.779 323.585 340.443L322.468 338.126C322.309 337.79 321.906 337.647 321.57 337.807L319.857 338.63C319.53 338.789 319.387 339.184 319.547 339.528ZM316.944 334.129L318.06 336.447C318.22 336.783 318.623 336.925 318.959 336.766L320.663 335.943C320.999 335.783 321.142 335.38 320.982 335.045L319.866 332.727C319.706 332.392 319.303 332.249 318.967 332.408L317.254 333.231C316.927 333.391 316.784 333.794 316.944 334.129ZM314.35 328.731L315.466 331.048C315.626 331.384 316.029 331.527 316.365 331.367L318.077 330.544C318.413 330.385 318.556 329.982 318.396 329.646L317.28 327.329C317.12 326.993 316.717 326.85 316.381 327.01L314.669 327.833C314.324 327.992 314.182 328.395 314.35 328.731ZM311.747 323.341L312.863 325.658C313.023 325.994 313.426 326.137 313.762 325.977L315.475 325.154C315.81 324.995 315.953 324.592 315.794 324.256L314.677 321.939C314.517 321.603 314.114 321.46 313.779 321.62L312.066 322.442C311.73 322.594 311.587 322.997 311.747 323.341ZM309.144 317.942L310.261 320.26C310.42 320.595 310.823 320.738 311.159 320.579L312.872 319.756C313.208 319.596 313.35 319.193 313.191 318.857L312.074 316.54C311.915 316.204 311.512 316.062 311.176 316.221L309.463 317.044C309.127 317.204 308.985 317.607 309.144 317.942ZM306.55 312.544L307.666 314.861C307.826 315.197 308.229 315.34 308.565 315.18L310.278 314.357C310.613 314.198 310.756 313.795 310.597 313.459L309.48 311.142C309.32 310.806 308.917 310.663 308.582 310.823L306.869 311.646C306.525 311.805 306.382 312.208 306.55 312.544ZM303.947 307.145L305.064 309.463C305.223 309.798 305.626 309.941 305.962 309.782L307.675 308.959C308.011 308.799 308.153 308.396 307.994 308.061L306.877 305.743C306.718 305.407 306.315 305.265 305.979 305.424L304.266 306.247C303.93 306.407 303.788 306.81 303.947 307.145ZM301.344 301.755L302.461 304.072C302.621 304.408 303.024 304.551 303.359 304.392L305.072 303.569C305.408 303.409 305.551 303.006 305.391 302.67L304.275 300.353C304.115 300.017 303.712 299.875 303.376 300.034L301.663 300.857C301.328 301.008 301.185 301.411 301.344 301.755ZM298.75 296.357L299.867 298.674C300.026 299.01 300.429 299.153 300.765 298.993L302.478 298.17C302.814 298.011 302.956 297.608 302.797 297.272L301.68 294.955C301.521 294.619 301.118 294.476 300.782 294.636L299.078 295.458C298.733 295.618 298.582 296.021 298.75 296.357ZM296.147 290.958L297.264 293.276C297.424 293.611 297.827 293.754 298.162 293.595L299.875 292.772C300.211 292.612 300.354 292.209 300.194 291.873L299.078 289.556C298.918 289.22 298.515 289.078 298.179 289.237L296.475 290.06C296.131 290.219 295.988 290.622 296.147 290.958ZM293.545 285.56L294.661 287.877C294.821 288.213 295.224 288.356 295.56 288.196L297.272 287.373C297.608 287.214 297.751 286.811 297.592 286.475L296.475 284.158C296.315 283.822 295.912 283.679 295.577 283.839L293.872 284.661C293.528 284.821 293.385 285.224 293.545 285.56ZM290.95 280.17L292.067 282.487C292.227 282.823 292.63 282.965 292.965 282.806L294.678 281.983C295.014 281.824 295.157 281.421 294.997 281.085L293.881 278.768C293.721 278.432 293.318 278.289 292.982 278.449L291.278 279.271C290.934 279.431 290.783 279.834 290.95 280.17ZM288.348 274.771L289.464 277.088C289.624 277.424 290.027 277.567 290.363 277.407L292.075 276.585C292.411 276.425 292.554 276.022 292.395 275.686L291.278 273.369C291.118 273.033 290.715 272.891 290.38 273.05L288.675 273.873C288.331 274.032 288.188 274.435 288.348 274.771ZM285.753 269.373L286.87 271.69C287.03 272.026 287.433 272.168 287.768 272.009L289.481 271.186C289.817 271.027 289.96 270.624 289.8 270.288L288.684 267.971C288.524 267.635 288.121 267.492 287.785 267.652L286.081 268.474C285.728 268.634 285.586 269.037 285.753 269.373ZM283.151 263.983L284.267 266.3C284.427 266.636 284.83 266.778 285.166 266.619L286.878 265.796C287.214 265.637 287.357 265.234 287.198 264.898L286.081 262.58C285.921 262.245 285.518 262.102 285.183 262.261L283.478 263.084C283.134 263.235 282.983 263.638 283.151 263.983ZM280.548 258.584L281.665 260.901C281.824 261.237 282.227 261.38 282.563 261.22L284.276 260.398C284.612 260.238 284.754 259.835 284.595 259.499L283.478 257.182C283.319 256.846 282.916 256.703 282.58 256.863L280.875 257.686C280.531 257.845 280.389 258.248 280.548 258.584ZM277.954 253.186L279.07 255.503C279.23 255.839 279.633 255.981 279.969 255.822L281.681 254.999C282.017 254.84 282.16 254.437 282.001 254.101L280.884 251.783C280.724 251.448 280.321 251.305 279.986 251.464L278.273 252.287C277.929 252.447 277.786 252.85 277.954 253.186ZM275.351 247.787L276.468 250.104C276.627 250.44 277.03 250.583 277.366 250.423L279.079 249.601C279.415 249.441 279.557 249.038 279.398 248.702L278.281 246.385C278.122 246.049 277.719 245.906 277.383 246.066L275.67 246.889C275.334 247.048 275.192 247.451 275.351 247.787ZM272.748 242.397L273.865 244.714C274.025 245.05 274.428 245.193 274.763 245.033L276.476 244.21C276.812 244.051 276.955 243.648 276.795 243.312L275.678 240.995C275.519 240.659 275.116 240.516 274.78 240.676L273.076 241.499C272.732 241.658 272.589 242.053 272.748 242.397ZM270.154 236.998L271.271 239.316C271.43 239.652 271.833 239.794 272.169 239.635L273.882 238.812C274.218 238.652 274.36 238.249 274.201 237.914L273.084 235.596C272.925 235.261 272.522 235.118 272.186 235.277L270.473 236.1C270.129 236.26 269.986 236.663 270.154 236.998ZM267.551 231.6L268.668 233.917C268.828 234.253 269.231 234.396 269.566 234.236L271.279 233.413C271.615 233.254 271.758 232.851 271.598 232.515L270.481 230.198C270.322 229.862 269.919 229.719 269.583 229.879L267.87 230.702C267.535 230.861 267.392 231.264 267.551 231.6ZM264.949 226.21L266.065 228.527C266.225 228.863 266.628 229.006 266.964 228.846L268.676 228.023C269.012 227.864 269.155 227.461 268.995 227.125L267.879 224.808C267.719 224.472 267.316 224.329 266.98 224.489L265.268 225.312C264.932 225.463 264.789 225.866 264.949 226.21ZM262.354 220.811L263.471 223.129C263.631 223.464 264.034 223.607 264.369 223.448L266.082 222.625C266.418 222.465 266.561 222.062 266.401 221.727L265.285 219.409C265.125 219.073 264.722 218.931 264.386 219.09L262.673 219.913C262.329 220.073 262.186 220.476 262.354 220.811ZM259.752 215.413L260.868 217.73C261.028 218.066 261.431 218.209 261.767 218.049L263.471 217.226C263.807 217.067 263.95 216.664 263.79 216.328L262.673 214.011C262.514 213.675 262.111 213.532 261.775 213.692L260.062 214.515C259.735 214.674 259.592 215.077 259.752 215.413ZM257.149 210.014L258.266 212.332C258.425 212.667 258.828 212.81 259.164 212.651L260.868 211.828C261.204 211.668 261.347 211.265 261.187 210.93L260.071 208.612C259.911 208.276 259.508 208.134 259.172 208.293L257.46 209.116C257.132 209.276 256.989 209.679 257.149 210.014ZM254.555 204.624L255.671 206.942C255.831 207.277 256.234 207.42 256.57 207.261L258.282 206.438C258.618 206.278 258.761 205.875 258.601 205.539L257.485 203.222C257.325 202.886 256.922 202.744 256.586 202.903L254.874 203.726C254.529 203.877 254.387 204.28 254.555 204.624ZM242.994 173.148L241.877 170.831C241.717 170.495 241.314 170.353 240.979 170.512L239.266 171.335C238.93 171.494 238.787 171.897 238.947 172.233L240.064 174.551C240.223 174.886 240.626 175.029 240.962 174.87L242.675 174.047C243.019 173.887 243.153 173.493 242.994 173.148ZM245.596 178.547L244.48 176.23C244.32 175.894 243.917 175.751 243.581 175.911L241.869 176.733C241.533 176.893 241.39 177.296 241.55 177.632L242.666 179.949C242.826 180.285 243.229 180.428 243.565 180.268L245.277 179.445C245.613 179.286 245.756 178.883 245.596 178.547ZM248.191 183.945L247.074 181.628C246.914 181.292 246.511 181.15 246.176 181.309L244.463 182.132C244.127 182.291 243.984 182.694 244.144 183.03L245.261 185.348C245.42 185.683 245.823 185.826 246.159 185.667L247.863 184.844C248.216 184.684 248.359 184.281 248.191 183.945ZM250.793 189.344L249.677 187.027C249.517 186.691 249.114 186.548 248.778 186.708L247.066 187.53C246.73 187.69 246.587 188.093 246.747 188.429L247.863 190.746C248.023 191.082 248.426 191.225 248.762 191.065L250.466 190.242C250.819 190.074 250.953 189.68 250.793 189.344ZM253.396 194.734L252.279 192.417C252.12 192.081 251.717 191.938 251.381 192.098L249.668 192.921C249.332 193.08 249.19 193.483 249.349 193.819L250.466 196.136C250.625 196.472 251.028 196.615 251.364 196.455L253.069 195.632C253.413 195.473 253.556 195.07 253.396 194.734ZM252.263 198.327C251.927 198.487 251.784 198.89 251.944 199.226L253.06 201.543C253.22 201.879 253.623 202.022 253.959 201.862L255.663 201.039C255.999 200.88 256.141 200.477 255.982 200.141L254.865 197.824C254.706 197.488 254.303 197.345 253.967 197.505L252.263 198.327ZM274.898 181.679L255.075 191.233C254.143 191.678 253.757 192.795 254.202 193.727L268.282 222.961C268.727 223.893 269.843 224.279 270.775 223.834L290.598 214.279C291.53 213.834 291.916 212.718 291.471 211.786L277.391 182.552C276.938 181.628 275.83 181.234 274.898 181.679ZM279.305 175.6L278.189 173.283C278.029 172.947 277.626 172.804 277.29 172.964L275.578 173.787C275.242 173.946 275.099 174.349 275.259 174.685L276.375 177.002C276.535 177.338 276.938 177.481 277.274 177.321L278.986 176.498C279.322 176.347 279.465 175.944 279.305 175.6ZM281.9 180.998L280.783 178.681C280.624 178.345 280.221 178.203 279.885 178.362L278.172 179.185C277.836 179.345 277.693 179.748 277.853 180.083L278.97 182.401C279.129 182.736 279.532 182.879 279.868 182.72L281.581 181.897C281.925 181.737 282.068 181.334 281.9 180.998ZM284.502 186.397L283.386 184.08C283.226 183.744 282.823 183.601 282.487 183.761L280.775 184.584C280.439 184.743 280.296 185.146 280.456 185.482L281.572 187.799C281.732 188.135 282.135 188.278 282.471 188.118L284.183 187.295C284.519 187.136 284.662 186.733 284.502 186.397ZM287.105 191.795L285.989 189.478C285.829 189.142 285.426 189 285.09 189.159L283.377 189.982C283.042 190.142 282.899 190.545 283.058 190.88L284.175 193.198C284.335 193.533 284.738 193.676 285.073 193.517L286.786 192.694C287.122 192.534 287.265 192.131 287.105 191.795ZM289.699 197.186L288.583 194.868C288.423 194.533 288.02 194.39 287.684 194.549L285.972 195.372C285.636 195.532 285.493 195.935 285.653 196.27L286.769 198.588C286.929 198.924 287.332 199.066 287.668 198.907L289.38 198.084C289.725 197.933 289.867 197.53 289.699 197.186ZM292.302 202.584L291.186 200.267C291.026 199.931 290.623 199.788 290.287 199.948L288.574 200.771C288.239 200.93 288.096 201.333 288.255 201.669L289.372 203.986C289.532 204.322 289.935 204.465 290.27 204.305L291.983 203.482C292.319 203.323 292.462 202.92 292.302 202.584ZM294.905 207.983L293.788 205.665C293.629 205.33 293.226 205.187 292.89 205.346L291.177 206.169C290.841 206.329 290.699 206.732 290.858 207.067L291.975 209.385C292.134 209.721 292.537 209.863 292.873 209.704L294.586 208.881C294.922 208.721 295.064 208.318 294.905 207.983ZM297.499 213.381L296.383 211.064C296.223 210.728 295.82 210.585 295.484 210.745L293.771 211.568C293.436 211.727 293.293 212.13 293.452 212.466L294.569 214.783C294.729 215.119 295.132 215.262 295.467 215.102L297.18 214.279C297.524 214.12 297.667 213.717 297.499 213.381ZM300.102 218.771L298.985 216.454C298.826 216.118 298.423 215.975 298.087 216.135L296.374 216.958C296.038 217.117 295.896 217.52 296.055 217.856L297.172 220.173C297.331 220.509 297.734 220.652 298.07 220.492L299.783 219.67C300.119 219.51 300.261 219.107 300.102 218.771ZM302.705 224.17L301.588 221.852C301.428 221.517 301.025 221.374 300.69 221.533L298.977 222.356C298.641 222.516 298.498 222.919 298.658 223.255L299.774 225.572C299.934 225.908 300.337 226.05 300.673 225.891L302.386 225.068C302.721 224.909 302.864 224.506 302.705 224.17ZM305.299 229.568L304.182 227.251C304.023 226.915 303.62 226.772 303.284 226.932L301.571 227.755C301.235 227.914 301.093 228.317 301.252 228.653L302.369 230.97C302.528 231.306 302.931 231.449 303.267 231.289L304.98 230.467C305.324 230.307 305.467 229.904 305.299 229.568ZM307.902 234.958L306.785 232.641C306.625 232.305 306.222 232.162 305.887 232.322L304.174 233.145C303.838 233.304 303.695 233.707 303.855 234.043L304.971 236.36C305.131 236.696 305.534 236.839 305.87 236.679L307.583 235.857C307.918 235.706 308.061 235.303 307.902 234.958ZM310.504 240.357L309.388 238.04C309.228 237.704 308.825 237.561 308.489 237.721L306.777 238.543C306.441 238.703 306.298 239.106 306.457 239.442L307.574 241.759C307.734 242.095 308.137 242.237 308.472 242.078L310.185 241.255C310.521 241.096 310.664 240.693 310.504 240.357ZM313.099 245.755L311.982 243.438C311.822 243.102 311.419 242.959 311.084 243.119L309.371 243.942C309.035 244.101 308.892 244.504 309.052 244.84L310.168 247.157C310.328 247.493 310.731 247.636 311.067 247.476L312.78 246.654C313.124 246.494 313.266 246.091 313.099 245.755ZM315.701 251.154L314.585 248.837C314.425 248.501 314.022 248.358 313.686 248.518L311.974 249.34C311.638 249.5 311.495 249.903 311.654 250.239L312.771 252.556C312.931 252.892 313.334 253.034 313.669 252.875L315.382 252.052C315.718 251.893 315.861 251.49 315.701 251.154ZM318.304 256.544L317.187 254.227C317.028 253.891 316.625 253.748 316.289 253.908L314.576 254.73C314.24 254.89 314.098 255.293 314.257 255.629L315.374 257.946C315.533 258.282 315.936 258.425 316.272 258.265L317.985 257.442C318.321 257.283 318.463 256.888 318.304 256.544ZM320.898 261.942L319.782 259.625C319.622 259.289 319.219 259.147 318.883 259.306L317.171 260.129C316.835 260.288 316.692 260.691 316.851 261.027L317.968 263.344C318.128 263.68 318.531 263.823 318.866 263.664L320.579 262.841C320.923 262.681 321.066 262.278 320.898 261.942ZM323.501 267.341L322.384 265.024C322.225 264.688 321.822 264.545 321.486 264.705L319.773 265.527C319.437 265.687 319.295 266.09 319.454 266.426L320.571 268.743C320.73 269.079 321.133 269.222 321.469 269.062L323.182 268.239C323.518 268.08 323.66 267.677 323.501 267.341ZM326.104 272.731L324.987 270.414C324.827 270.078 324.424 269.935 324.089 270.095L322.376 270.917C322.04 271.077 321.897 271.48 322.057 271.816L323.174 274.133C323.333 274.469 323.736 274.612 324.072 274.452L325.785 273.629C326.12 273.478 326.263 273.075 326.104 272.731ZM328.698 278.129L327.581 275.812C327.422 275.476 327.019 275.334 326.683 275.493L324.97 276.316C324.634 276.476 324.492 276.879 324.651 277.214L325.768 279.532C325.927 279.867 326.33 280.01 326.666 279.851L328.379 279.028C328.715 278.868 328.866 278.465 328.698 278.129ZM331.301 283.528L330.184 281.211C330.024 280.875 329.621 280.732 329.286 280.892L327.573 281.714C327.237 281.874 327.094 282.277 327.254 282.613L328.371 284.93C328.53 285.266 328.933 285.409 329.269 285.249L330.982 284.426C331.317 284.267 331.46 283.864 331.301 283.528ZM333.895 288.926L332.778 286.609C332.619 286.273 332.216 286.131 331.88 286.29L330.167 287.113C329.831 287.273 329.689 287.675 329.848 288.011L330.965 290.329C331.124 290.664 331.527 290.807 331.863 290.648L333.576 289.825C333.92 289.665 334.063 289.262 333.895 288.926ZM336.498 294.317L335.381 291.999C335.221 291.664 334.818 291.521 334.483 291.68L332.77 292.503C332.434 292.663 332.291 293.066 332.451 293.401L333.568 295.719C333.727 296.055 334.13 296.197 334.466 296.038L336.179 295.215C336.514 295.055 336.666 294.661 336.498 294.317ZM339.1 299.715L337.984 297.398C337.824 297.062 337.421 296.919 337.085 297.079L335.373 297.902C335.037 298.061 334.894 298.464 335.054 298.8L336.17 301.117C336.33 301.453 336.733 301.596 337.069 301.436L338.781 300.613C339.117 300.454 339.26 300.051 339.1 299.715ZM341.695 305.114L340.578 302.796C340.418 302.46 340.015 302.318 339.68 302.477L337.967 303.3C337.631 303.46 337.488 303.863 337.648 304.198L338.765 306.516C338.924 306.852 339.327 306.994 339.663 306.835L341.376 306.012C341.72 305.852 341.863 305.449 341.695 305.114ZM344.297 310.512L343.181 308.195C343.021 307.859 342.618 307.716 342.282 307.876L340.57 308.699C340.234 308.858 340.091 309.261 340.251 309.597L341.367 311.914C341.527 312.25 341.93 312.393 342.266 312.233L343.978 311.41C344.314 311.251 344.465 310.848 344.297 310.512ZM346.9 315.902L345.783 313.585C345.624 313.249 345.221 313.106 344.885 313.266L343.172 314.089C342.836 314.248 342.694 314.651 342.853 314.987L343.97 317.304C344.129 317.64 344.532 317.783 344.868 317.623L346.581 316.801C346.917 316.641 347.06 316.238 346.9 315.902ZM349.494 321.301L348.378 318.983C348.218 318.648 347.815 318.505 347.479 318.664L345.767 319.487C345.431 319.647 345.288 320.05 345.448 320.386L346.564 322.703C346.724 323.039 347.127 323.181 347.463 323.022L349.175 322.199C349.52 322.04 349.662 321.637 349.494 321.301ZM352.097 326.699L350.98 324.382C350.821 324.046 350.418 323.903 350.082 324.063L348.369 324.886C348.033 325.045 347.891 325.448 348.05 325.784L349.167 328.101C349.326 328.437 349.729 328.58 350.065 328.42L351.778 327.598C352.114 327.438 352.257 327.035 352.097 326.699ZM354.7 332.089L353.583 329.772C353.424 329.436 353.021 329.293 352.685 329.453L350.972 330.276C350.636 330.435 350.493 330.838 350.653 331.174L351.77 333.491C351.929 333.827 352.332 333.97 352.668 333.81L354.381 332.988C354.717 332.837 354.859 332.434 354.7 332.089ZM357.294 337.488L356.177 335.171C356.018 334.835 355.615 334.692 355.279 334.851L353.566 335.674C353.23 335.834 353.088 336.237 353.247 336.573L354.364 338.89C354.523 339.226 354.926 339.368 355.262 339.209L356.975 338.386C357.319 338.227 357.462 337.824 357.294 337.488ZM359.897 342.886L358.78 340.569C358.621 340.233 358.218 340.09 357.882 340.25L356.169 341.073C355.833 341.232 355.69 341.635 355.85 341.971L356.967 344.288C357.126 344.624 357.529 344.767 357.865 344.607L359.578 343.785C359.914 343.625 360.056 343.222 359.897 342.886ZM362.499 348.285L361.383 345.968C361.223 345.632 360.82 345.489 360.484 345.648L358.772 346.471C358.436 346.631 358.293 347.034 358.453 347.37L359.569 349.687C359.729 350.023 360.132 350.165 360.468 350.006L362.18 349.183C362.516 349.024 362.659 348.621 362.499 348.285ZM363.977 351.358C363.818 351.022 363.415 350.879 363.079 351.039L361.366 351.861C361.03 352.021 360.887 352.424 361.047 352.76L362.164 355.077C362.323 355.413 362.726 355.556 363.062 355.396L364.775 354.573C365.111 354.414 365.253 354.011 365.094 353.675L363.977 351.358Z" fill="url(#paint8_linear_44_1529)"/>
<g opacity="0.6">
<path opacity="0.5" d="M356.941 351.962L348.462 356.042H332.409L320.537 331.409C320.092 330.477 320.479 329.369 321.41 328.924L341.233 319.37C342.165 318.925 343.273 319.311 343.726 320.243L357.806 349.477C358.26 350.4 357.865 351.517 356.941 351.962Z" fill="url(#paint9_linear_44_1529)"/>
<path opacity="0.5" d="M304.829 294.501C303.897 294.946 303.511 296.063 303.956 296.986L318.035 326.221C318.48 327.152 319.597 327.539 320.52 327.094L340.343 317.539C341.275 317.094 341.661 315.978 341.216 315.054L327.136 285.82C326.691 284.896 325.575 284.502 324.651 284.947L304.829 294.501Z" fill="url(#paint10_linear_44_1529)"/>
<path opacity="0.5" d="M288.247 260.079C287.315 260.524 286.929 261.64 287.374 262.572L301.454 291.806C301.899 292.738 303.015 293.124 303.947 292.679L323.77 283.125C324.702 282.68 325.088 281.563 324.643 280.631L310.563 251.397C310.118 250.465 309.001 250.079 308.069 250.524L288.247 260.079Z" fill="url(#paint11_linear_44_1529)"/>
<path opacity="0.5" d="M271.657 225.656C270.725 226.101 270.339 227.217 270.784 228.149L284.864 257.383C285.309 258.315 286.425 258.702 287.349 258.257L307.171 248.702C308.103 248.257 308.489 247.141 308.044 246.209L293.965 216.974C293.52 216.043 292.403 215.656 291.471 216.101L271.657 225.656Z" fill="url(#paint12_linear_44_1529)"/>
<path opacity="0.5" d="M255.075 191.233C254.143 191.678 253.757 192.795 254.202 193.726L268.282 222.961C268.727 223.893 269.843 224.279 270.775 223.834L290.598 214.279C291.53 213.834 291.916 212.718 291.471 211.786L277.391 182.552C276.946 181.628 275.83 181.234 274.898 181.678L255.075 191.233Z" fill="url(#paint13_linear_44_1529)"/>
<path d="M271.338 170L274.889 177.363C275.334 178.295 274.948 179.403 274.016 179.857L254.194 189.403C253.262 189.848 252.153 189.461 251.7 188.53L242.775 170H271.338Z" fill="url(#paint14_linear_44_1529)"/>
</g>
</g>
</g>
<defs>
<linearGradient id="paint0_linear_44_1529" x1="368.371" y1="176.042" x2="112.996" y2="176.042" gradientUnits="userSpaceOnUse">
<stop stop-color="#2B2B2B"/>
<stop offset="0.3726" stop-color="#272727"/>
<stop offset="0.7404" stop-color="#1B1B1B"/>
<stop offset="1" stop-color="#0E0E0E"/>
</linearGradient>
<linearGradient id="paint1_linear_44_1529" x1="354.852" y1="-1.61619" x2="339.693" y2="-1.61619" gradientUnits="userSpaceOnUse">
<stop stop-color="#2B2B2B"/>
<stop offset="0.3726" stop-color="#272727"/>
<stop offset="0.7404" stop-color="#1B1B1B"/>
<stop offset="1" stop-color="#0E0E0E"/>
</linearGradient>
<linearGradient id="paint2_linear_44_1529" x1="349.082" y1="31.6906" x2="276.245" y2="31.6906" gradientUnits="userSpaceOnUse">
<stop stop-color="#2B2B2B"/>
<stop offset="0.3726" stop-color="#272727"/>
<stop offset="0.7404" stop-color="#1B1B1B"/>
<stop offset="1" stop-color="#0E0E0E"/>
</linearGradient>
<linearGradient id="paint3_linear_44_1529" x1="316.988" y1="92.8352" x2="244.151" y2="92.8352" gradientUnits="userSpaceOnUse">
<stop stop-color="#2B2B2B"/>
<stop offset="0.3726" stop-color="#272727"/>
<stop offset="0.7404" stop-color="#1B1B1B"/>
<stop offset="1" stop-color="#0E0E0E"/>
</linearGradient>
<linearGradient id="paint4_linear_44_1529" x1="284.894" y1="159.448" x2="212.057" y2="159.448" gradientUnits="userSpaceOnUse">
<stop stop-color="#2B2B2B"/>
<stop offset="0.3726" stop-color="#272727"/>
<stop offset="0.7404" stop-color="#1B1B1B"/>
<stop offset="1" stop-color="#0E0E0E"/>
</linearGradient>
<linearGradient id="paint5_linear_44_1529" x1="252.8" y1="226.062" x2="179.963" y2="226.062" gradientUnits="userSpaceOnUse">
<stop stop-color="#2B2B2B"/>
<stop offset="0.3726" stop-color="#272727"/>
<stop offset="0.7404" stop-color="#1B1B1B"/>
<stop offset="1" stop-color="#0E0E0E"/>
</linearGradient>
<linearGradient id="paint6_linear_44_1529" x1="220.705" y1="292.675" x2="147.869" y2="292.675" gradientUnits="userSpaceOnUse">
<stop stop-color="#2B2B2B"/>
<stop offset="0.3726" stop-color="#272727"/>
<stop offset="0.7404" stop-color="#1B1B1B"/>
<stop offset="1" stop-color="#0E0E0E"/>
</linearGradient>
<linearGradient id="paint7_linear_44_1529" x1="188.612" y1="337.106" x2="126.109" y2="337.106" gradientUnits="userSpaceOnUse">
<stop stop-color="#2B2B2B"/>
<stop offset="0.3726" stop-color="#272727"/>
<stop offset="0.7404" stop-color="#1B1B1B"/>
<stop offset="1" stop-color="#0E0E0E"/>
</linearGradient>
<linearGradient id="paint8_linear_44_1529" x1="367.962" y1="263.023" x2="235.998" y2="263.023" gradientUnits="userSpaceOnUse">
<stop stop-color="#2B2B2B"/>
<stop offset="0.3726" stop-color="#272727"/>
<stop offset="0.7404" stop-color="#1B1B1B"/>
<stop offset="1" stop-color="#0E0E0E"/>
</linearGradient>
<linearGradient id="paint9_linear_44_1529" x1="357.994" y1="337.616" x2="320.356" y2="337.616" gradientUnits="userSpaceOnUse">
<stop stop-color="#2B2B2B"/>
<stop offset="0.3726" stop-color="#272727"/>
<stop offset="0.7404" stop-color="#1B1B1B"/>
<stop offset="1" stop-color="#0E0E0E"/>
</linearGradient>
<linearGradient id="paint10_linear_44_1529" x1="341.41" y1="306.02" x2="303.772" y2="306.02" gradientUnits="userSpaceOnUse">
<stop stop-color="#2B2B2B"/>
<stop offset="0.3726" stop-color="#272727"/>
<stop offset="0.7404" stop-color="#1B1B1B"/>
<stop offset="1" stop-color="#0E0E0E"/>
</linearGradient>
<linearGradient id="paint11_linear_44_1529" x1="324.825" y1="271.598" x2="287.187" y2="271.598" gradientUnits="userSpaceOnUse">
<stop stop-color="#2B2B2B"/>
<stop offset="0.3726" stop-color="#272727"/>
<stop offset="0.7404" stop-color="#1B1B1B"/>
<stop offset="1" stop-color="#0E0E0E"/>
</linearGradient>
<linearGradient id="paint12_linear_44_1529" x1="308.241" y1="237.176" x2="270.603" y2="237.176" gradientUnits="userSpaceOnUse">
<stop stop-color="#2B2B2B"/>
<stop offset="0.3726" stop-color="#272727"/>
<stop offset="0.7404" stop-color="#1B1B1B"/>
<stop offset="1" stop-color="#0E0E0E"/>
</linearGradient>
<linearGradient id="paint13_linear_44_1529" x1="291.656" y1="202.754" x2="254.018" y2="202.754" gradientUnits="userSpaceOnUse">
<stop stop-color="#2B2B2B"/>
<stop offset="0.3726" stop-color="#272727"/>
<stop offset="0.7404" stop-color="#1B1B1B"/>
<stop offset="1" stop-color="#0E0E0E"/>
</linearGradient>
<linearGradient id="paint14_linear_44_1529" x1="275.072" y1="179.794" x2="242.774" y2="179.794" gradientUnits="userSpaceOnUse">
<stop stop-color="#2B2B2B"/>
<stop offset="0.3726" stop-color="#272727"/>
<stop offset="0.7404" stop-color="#1B1B1B"/>
<stop offset="1" stop-color="#0E0E0E"/>
</linearGradient>
<clipPath id="clip0_44_1529">
<rect width="368" height="350" fill="white" transform="matrix(-1 0 0 1 368 0)"/>
</clipPath>
</defs>
</svg>
